<svg width="216" height="174" viewBox="0 0 216 174" fill="none" xmlns="http://www.w3.org/2000/svg">
<path d="M114.003 99.3943L117.188 98.6657C117.443 98.6076 117.693 98.6215 117.915 98.6937C118.149 98.7691 118.352 98.9078 118.49 99.0935C118.533 99.1503 118.569 99.2113 118.598 99.2753C118.625 99.3339 118.646 99.3951 118.66 99.4605L128.794 143.87C128.925 144.443 128.514 145.033 127.874 145.209C127.854 145.213 127.832 145.22 127.812 145.224L124.627 145.953C124.606 145.957 124.584 145.961 124.564 145.965C123.912 146.085 123.285 145.731 123.154 145.158L113.021 100.749C113.006 100.683 112.998 100.62 112.997 100.554C112.996 100.483 113.002 100.413 113.015 100.343C113.059 100.117 113.181 99.9029 113.359 99.7336C113.529 99.573 113.75 99.4507 114.003 99.3929L114.003 99.3943Z" fill="#F5FAAF"/>
<path d="M123.392 120.191L128.821 143.983C128.938 144.494 128.515 145.034 127.875 145.207C127.855 145.211 127.834 145.219 127.813 145.223L124.628 145.951C124.607 145.955 124.586 145.96 124.565 145.964C123.914 146.086 123.298 145.784 123.182 145.272L118.419 124.402C120.004 123.69 122.124 122.387 123.393 120.191L123.392 120.191Z" fill="#EFF779"/>
<path d="M114.013 105.08L114.128 105.584L119.77 104.299L119.655 103.794L114.013 105.08Z" fill="#EFF779"/>
<path d="M114.395 106.782L114.511 107.286L120.151 105.997L120.036 105.493L114.395 106.782Z" fill="#EFF779"/>
<path d="M114.87 108.849L114.985 109.353L120.626 108.067L120.511 107.562L114.87 108.849Z" fill="#EFF779"/>
<path d="M115.593 111.967L115.708 112.471L121.349 111.185L121.234 110.68L115.593 111.967Z" fill="#EFF779"/>
<path d="M116.343 115.286L116.459 115.79L122.1 114.503L121.985 113.999L116.343 115.286Z" fill="#EFF779"/>
<path d="M117.494 120.38L117.61 120.884L123.25 119.596L123.135 119.091L117.494 120.38Z" fill="#EFF779"/>
<path d="M118.593 125.156L118.708 125.661L124.349 124.375L124.234 123.871L118.593 125.156Z" fill="#EFF779"/>
<path d="M119.572 129.405L119.687 129.909L125.329 128.622L125.214 128.118L119.572 129.405Z" fill="#EFF779"/>
<path d="M113.63 103.445L113.746 103.949L119.386 102.661L119.271 102.156L113.63 103.445Z" fill="#EFF779"/>
<path d="M113.395 102.366L113.51 102.87L119.152 101.583L119.037 101.079L113.395 102.366Z" fill="#EFF779"/>
<path d="M113.147 101.332L113.263 101.837L118.903 100.548L118.788 100.044L113.147 101.332Z" fill="#EFF779"/>
<path d="M113.092 101.064L118.733 99.7745L118.662 99.4588C118.647 99.3935 118.626 99.3322 118.599 99.2737L112.998 100.556C112.999 100.621 113.006 100.685 113.021 100.75L113.093 101.066L113.092 101.064Z" fill="#EFF779"/>
<path d="M113.015 100.344L118.49 99.0921C118.352 98.9064 118.149 98.7678 117.915 98.6923L113.358 99.7352C113.18 99.9045 113.058 100.118 113.014 100.345L113.015 100.344Z" fill="#EFF779"/>
<path d="M119.418 97.1811L122.603 96.4525C122.856 96.3947 123.108 96.4084 123.33 96.4805C123.564 96.556 123.767 96.6946 123.905 96.8803C123.948 96.9372 123.984 96.9981 124.013 97.0621C124.04 97.1207 124.061 97.1819 124.075 97.2473L134.209 141.657C134.34 142.229 133.928 142.819 133.289 142.996C133.269 143 133.247 143.007 133.227 143.011L130.042 143.74C130.021 143.744 129.999 143.748 129.979 143.752C129.327 143.871 128.7 143.518 128.569 142.945L118.436 98.5355C118.421 98.4701 118.413 98.4064 118.412 98.341C118.411 98.2702 118.417 98.1993 118.43 98.1299C118.474 97.9034 118.596 97.6897 118.774 97.5204C118.944 97.3598 119.165 97.2375 119.418 97.1797L119.418 97.1811Z" fill="#F5FAAF"/>
<path d="M128.807 117.979L134.237 141.771C134.353 142.282 133.93 142.822 133.291 142.995C133.27 143 133.249 143.007 133.228 143.011L130.043 143.739C130.023 143.743 130.001 143.748 129.98 143.752C129.329 143.874 128.713 143.572 128.597 143.06L123.835 122.191C125.42 121.478 127.538 120.175 128.809 117.979L128.807 117.979Z" fill="#EFF779"/>
<path d="M119.429 102.869L119.544 103.373L125.185 102.088L125.07 101.583L119.429 102.869Z" fill="#EFF779"/>
<path d="M119.818 104.574L119.933 105.078L125.574 103.79L125.459 103.285L119.818 104.574Z" fill="#EFF779"/>
<path d="M120.286 106.636L120.401 107.141L126.042 105.854L125.927 105.35L120.286 106.636Z" fill="#EFF779"/>
<path d="M121.002 109.753L121.117 110.258L126.758 108.971L126.643 108.467L121.002 109.753Z" fill="#EFF779"/>
<path d="M121.758 113.073L121.873 113.578L127.514 112.291L127.399 111.787L121.758 113.073Z" fill="#EFF779"/>
<path d="M122.92 118.19L123.035 118.694L128.676 117.407L128.561 116.903L122.92 118.19Z" fill="#EFF779"/>
<path d="M124.007 122.932L124.122 123.436L129.765 122.149L129.65 121.645L124.007 122.932Z" fill="#EFF779"/>
<path d="M124.981 127.189L125.096 127.694L130.737 126.407L130.622 125.903L124.981 127.189Z" fill="#EFF779"/>
<path d="M119.058 101.252L119.173 101.757L124.814 100.47L124.699 99.9655L119.058 101.252Z" fill="#EFF779"/>
<path d="M118.811 100.164L118.926 100.668L124.567 99.3795L124.452 98.875L118.811 100.164Z" fill="#EFF779"/>
<path d="M118.562 99.1206L118.678 99.625L124.318 98.3365L124.203 97.8321L118.562 99.1206Z" fill="#EFF779"/>
<path d="M118.507 98.8525L124.149 97.5627L124.077 97.247C124.062 97.1817 124.042 97.1204 124.014 97.0619L118.412 98.3424C118.414 98.4075 118.421 98.4715 118.436 98.5369L118.507 98.8525Z" fill="#EFF779"/>
<path d="M118.43 98.1326L123.905 96.8803C123.767 96.6946 123.564 96.5559 123.33 96.4805L118.774 97.5234C118.595 97.6927 118.473 97.9064 118.429 98.1329L118.43 98.1326Z" fill="#EFF779"/>
<path d="M115.936 145.212L117.166 148.238C117.264 148.479 117.29 148.73 117.255 148.96C117.218 149.204 117.113 149.425 116.953 149.591C116.903 149.642 116.85 149.687 116.791 149.727C116.737 149.764 116.68 149.794 116.619 149.819L74.3933 166.95C73.8485 167.171 73.2 166.86 72.9228 166.257C72.9146 166.237 72.905 166.218 72.8968 166.198L71.6664 163.171C71.6582 163.152 71.6513 163.132 71.6429 163.111C71.4209 162.485 71.6687 161.811 72.2138 161.591L114.439 144.46C114.501 144.435 114.563 144.417 114.627 144.406C114.697 144.392 114.767 144.388 114.839 144.39C115.07 144.397 115.3 144.483 115.497 144.633C115.683 144.775 115.839 144.971 115.937 145.213L115.936 145.212Z" fill="#F5FAAF"/>
<path d="M96.905 157.817L74.2828 166.994C73.7972 167.191 73.1963 166.862 72.9218 166.258C72.9136 166.239 72.904 166.219 72.8958 166.2L71.6654 163.173C71.6572 163.153 71.6503 163.133 71.6418 163.112C71.4174 162.489 71.6176 161.833 72.1033 161.636L91.9472 153.585C92.9047 155.035 94.5305 156.915 96.9036 157.817L96.905 157.817Z" fill="#EFF779"/>
<path d="M109.847 146.322L112.022 151.681L112.502 151.487L110.327 146.128L109.847 146.322Z" fill="#EFF779"/>
<path d="M108.223 146.98L110.399 152.34L110.878 152.145L108.703 146.786L108.223 146.98Z" fill="#EFF779"/>
<path d="M106.271 147.776L108.444 153.136L108.924 152.941L106.75 147.581L106.271 147.776Z" fill="#EFF779"/>
<path d="M103.277 148.985L105.453 154.344L105.932 154.149L103.757 148.79L103.277 148.985Z" fill="#EFF779"/>
<path d="M100.132 150.263L102.307 155.622L102.787 155.428L100.612 150.068L100.132 150.263Z" fill="#EFF779"/>
<path d="M95.2919 152.227L97.4672 157.586L97.9468 157.391L95.7715 152.032L95.2919 152.227Z" fill="#EFF779"/>
<path d="M90.7599 154.067L92.9352 159.426L93.4148 159.231L91.2395 153.872L90.7599 154.067Z" fill="#EFF779"/>
<path d="M86.7135 155.716L88.887 161.076L89.3667 160.882L87.1932 155.522L86.7135 155.716Z" fill="#EFF779"/>
<path d="M111.394 145.695L113.569 151.054L114.049 150.859L111.873 145.5L111.394 145.695Z" fill="#EFF779"/>
<path d="M112.418 145.288L114.595 150.647L115.074 150.452L112.898 145.093L112.418 145.288Z" fill="#EFF779"/>
<path d="M113.402 144.879L115.577 150.238L116.057 150.044L113.881 144.684L113.402 144.879Z" fill="#EFF779"/>
<path d="M114.14 144.581L116.319 149.94L116.619 149.819C116.681 149.793 116.737 149.764 116.791 149.727L114.627 144.406C114.564 144.418 114.501 144.435 114.439 144.46L114.139 144.582L114.14 144.581Z" fill="#EFF779"/>
<path d="M114.839 144.39L116.953 149.591C117.113 149.425 117.218 149.204 117.255 148.96L115.495 144.632C115.299 144.483 115.07 144.397 114.838 144.389L114.839 144.39Z" fill="#EFF779"/>
<path d="M109.243 141.686L110.473 144.712C110.571 144.953 110.597 145.204 110.562 145.434C110.525 145.678 110.42 145.899 110.26 146.065C110.21 146.116 110.157 146.161 110.098 146.201C110.044 146.238 109.987 146.267 109.926 146.293L67.7002 163.423C67.1555 163.645 66.507 163.334 66.2297 162.731C66.2215 162.711 66.212 162.692 66.2037 162.672L64.9733 159.645C64.9651 159.626 64.9583 159.606 64.9498 159.585C64.7278 158.959 64.9757 158.285 65.5204 158.064L107.746 140.933C107.773 140.922 107.8 140.912 107.828 140.904C107.84 140.9 107.852 140.896 107.865 140.893C107.878 140.891 107.892 140.887 107.905 140.884C107.915 140.882 107.924 140.88 107.934 140.878C108.004 140.864 108.074 140.86 108.146 140.863C108.156 140.864 108.167 140.863 108.178 140.865C108.188 140.866 108.199 140.866 108.209 140.867C108.23 140.869 108.251 140.871 108.272 140.874C108.284 140.876 108.297 140.879 108.309 140.881C108.321 140.883 108.331 140.885 108.342 140.889C108.362 140.893 108.383 140.898 108.404 140.903C108.428 140.91 108.451 140.918 108.474 140.926C108.493 140.933 108.511 140.939 108.528 140.947C108.528 140.947 108.53 140.947 108.532 140.949C108.544 140.954 108.556 140.96 108.569 140.964C108.606 140.981 108.643 141.001 108.678 141.021C108.689 141.027 108.699 141.034 108.709 141.04C108.719 141.047 108.73 141.053 108.74 141.061C108.762 141.075 108.783 141.089 108.802 141.105C108.988 141.246 109.144 141.444 109.242 141.684L109.243 141.686Z" fill="#F5FAAF"/>
<path d="M90.2128 154.289L67.5907 163.467C67.105 163.663 66.5041 163.334 66.231 162.73C66.2228 162.711 66.2132 162.691 66.205 162.672L64.9746 159.645C64.9664 159.625 64.9595 159.605 64.9511 159.584C64.7266 158.961 64.9255 158.305 65.4125 158.108L85.2554 150.059C85.2819 150.099 85.3085 150.139 85.3364 150.179C86.3043 151.609 87.9034 153.414 90.2115 154.289L90.2128 154.289Z" fill="#EFF779"/>
<path d="M103.143 142.796L105.318 148.155L105.798 147.961L103.623 142.602L103.143 142.796Z" fill="#EFF779"/>
<path d="M101.518 143.455L103.693 148.814L104.173 148.619L101.998 143.26L101.518 143.455Z" fill="#EFF779"/>
<path d="M99.5813 144.244L101.757 149.603L102.236 149.408L100.061 144.049L99.5813 144.244Z" fill="#EFF779"/>
<path d="M96.5957 145.455L98.7711 150.814L99.2507 150.619L97.0754 145.26L96.5957 145.455Z" fill="#EFF779"/>
<path d="M93.4408 146.744L95.6171 152.102L96.0967 151.908L93.9204 146.549L93.4408 146.744Z" fill="#EFF779"/>
<path d="M88.6 148.708L90.7734 154.067L91.2531 153.873L89.0797 148.513L88.6 148.708Z" fill="#EFF779"/>
<path d="M84.0668 150.538L86.2421 155.897L86.7217 155.703L84.5464 150.344L84.0668 150.538Z" fill="#EFF779"/>
<path d="M80.0194 152.19L82.1956 157.549L82.6752 157.354L80.499 151.995L80.0194 152.19Z" fill="#EFF779"/>
<path d="M104.69 142.169L106.865 147.528L107.345 147.333L105.169 141.974L104.69 142.169Z" fill="#EFF779"/>
<path d="M105.722 141.753L107.897 147.112L108.377 146.918L106.201 141.558L105.722 141.753Z" fill="#EFF779"/>
<path d="M106.709 141.353L108.885 146.712L109.364 146.518L107.189 141.158L106.709 141.353Z" fill="#EFF779"/>
<path d="M107.447 141.055L109.625 146.414L109.925 146.293C109.987 146.267 110.044 146.238 110.098 146.201L107.934 140.881C107.871 140.893 107.808 140.91 107.746 140.936L107.446 141.057L107.447 141.055Z" fill="#EFF779"/>
<path d="M108.146 140.863L110.259 146.064C110.42 145.898 110.525 145.676 110.562 145.433L108.802 141.104C108.605 140.956 108.376 140.869 108.144 140.863L108.146 140.863Z" fill="#EFF779"/>
<path d="M109.3 135.574L110.53 138.6C110.628 138.841 110.654 139.092 110.619 139.322C110.582 139.566 110.477 139.787 110.317 139.953C110.268 140.004 110.214 140.05 110.155 140.089C110.101 140.126 110.045 140.156 109.983 140.181L67.7574 157.312C67.5877 157.381 67.4074 157.397 67.2329 157.371C66.8613 157.313 66.5086 157.058 66.3115 156.671C66.3025 156.654 66.2948 156.637 66.2872 156.62C66.279 156.6 66.2694 156.581 66.2609 156.56L65.0305 153.533C65.0223 153.514 65.0152 153.492 65.0069 153.473C64.785 152.847 65.0328 152.173 65.5779 151.953L107.803 134.822C107.865 134.797 107.927 134.781 107.991 134.768C108.061 134.754 108.132 134.75 108.203 134.752C108.434 134.759 108.664 134.845 108.861 134.995C109.047 135.137 109.203 135.333 109.3 135.575L109.3 135.574Z" fill="#F5FAAF"/>
<path d="M90.269 148.179L67.6468 157.356C67.4955 157.418 67.3338 157.428 67.1735 157.394C66.8336 157.324 66.5044 157.059 66.3112 156.669C66.3022 156.653 66.2945 156.636 66.2869 156.619C66.2787 156.599 66.2691 156.58 66.2606 156.559L65.0302 153.532C65.022 153.512 65.0148 153.491 65.0066 153.471C64.7822 152.848 64.9825 152.192 65.4681 151.995L85.3121 143.944C86.2444 145.353 87.808 147.172 90.0752 148.1C90.1387 148.125 90.2036 148.151 90.2681 148.175L90.269 148.179Z" fill="#EFF779"/>
<path d="M108.134 129.805L109.364 132.832C109.462 133.072 109.488 133.323 109.453 133.553C109.416 133.797 109.311 134.018 109.151 134.184C109.101 134.235 109.048 134.28 108.989 134.32C108.935 134.357 108.878 134.387 108.817 134.412L66.5913 151.543C66.0466 151.764 65.3981 151.453 65.1211 150.851C65.1129 150.832 65.1033 150.812 65.0949 150.791L63.8644 147.765C63.8562 147.745 63.8494 147.725 63.8409 147.704C63.6354 147.125 63.8329 146.505 64.2936 146.241C64.3306 146.219 64.3694 146.2 64.4115 146.183L106.637 129.052C106.699 129.027 106.761 129.009 106.825 128.997C106.895 128.983 106.965 128.979 107.037 128.982C107.267 128.989 107.498 129.075 107.694 129.225C107.881 129.366 108.035 129.563 108.134 129.805Z" fill="#F5FAAF"/>
<path d="M89.1027 142.409L66.4805 151.586C65.9948 151.783 65.394 151.454 65.1195 150.85C65.1113 150.831 65.1017 150.811 65.0932 150.79L63.8628 147.764C63.8546 147.744 63.8477 147.724 63.8392 147.703C63.6312 147.126 63.7866 146.523 64.1959 146.279C64.229 146.259 64.2638 146.241 64.3007 146.227L84.1433 138.176C84.1433 138.176 84.1471 138.181 84.149 138.183C85.1074 139.63 86.7311 141.508 89.1007 142.406L89.1027 142.409Z" fill="#EFF779"/>
<path d="M102.854 125.714L104.084 128.741C104.182 128.982 104.21 129.232 104.173 129.463C104.137 129.706 104.032 129.928 103.871 130.094C103.822 130.145 103.768 130.19 103.709 130.23C103.692 130.242 103.673 130.253 103.654 130.264C103.644 130.27 103.633 130.275 103.622 130.282C103.612 130.288 103.601 130.293 103.589 130.298C103.571 130.307 103.554 130.315 103.536 130.321L61.3104 147.452C60.7657 147.674 60.1172 147.363 59.8399 146.76C59.8317 146.74 59.8222 146.72 59.814 146.701L58.5835 143.674C58.5753 143.655 58.5682 143.633 58.56 143.614C58.5537 143.596 58.549 143.58 58.5428 143.563C58.3824 143.053 58.5314 142.518 58.8937 142.231C58.9022 142.224 58.9123 142.217 58.9208 142.21C58.984 142.163 59.0543 142.124 59.1306 142.093L101.356 124.962C101.388 124.95 101.418 124.939 101.449 124.929C101.464 124.926 101.477 124.92 101.492 124.917C101.509 124.914 101.526 124.911 101.543 124.907C101.613 124.893 101.683 124.889 101.755 124.892C101.985 124.898 102.216 124.985 102.412 125.134C102.598 125.276 102.754 125.473 102.853 125.715L102.854 125.714Z" fill="#F5FAAF"/>
<path d="M83.8232 138.318L61.201 147.496C60.7153 147.692 60.1145 147.363 59.84 146.76C59.8318 146.74 59.8222 146.72 59.814 146.701L58.5835 143.674C58.5753 143.655 58.5682 143.633 58.56 143.614C58.5537 143.596 58.5491 143.58 58.5428 143.563C58.3747 143.043 58.4986 142.511 58.833 142.247C58.8439 142.238 58.8562 142.229 58.8677 142.222C58.9151 142.188 58.9662 142.16 59.0215 142.137L78.8654 134.086C78.8734 134.097 78.8799 134.109 78.8895 134.121C79.8484 135.563 81.4631 137.418 83.8095 138.314C83.8141 138.315 83.8188 138.317 83.8218 138.318L83.8232 138.318Z" fill="#EFF779"/>
<path d="M100.603 120.43L101.833 123.457C101.931 123.697 101.958 123.948 101.923 124.178C101.887 124.422 101.782 124.643 101.621 124.809C101.584 124.849 101.542 124.886 101.497 124.918C101.484 124.928 101.473 124.935 101.461 124.944C101.407 124.98 101.35 125.01 101.288 125.035L59.0628 142.166C59.018 142.183 58.9725 142.198 58.9263 142.209C58.9088 142.214 58.891 142.217 58.8729 142.22C58.3747 142.311 57.8384 142.006 57.5924 141.473C57.5841 141.453 57.5746 141.434 57.5664 141.414L56.3359 138.388C56.3277 138.368 56.3206 138.347 56.3124 138.327C56.0904 137.702 56.3383 137.028 56.883 136.806L99.1084 119.675C99.136 119.664 99.1625 119.655 99.1907 119.646C99.203 119.644 99.2151 119.64 99.2271 119.636C99.2408 119.633 99.2542 119.629 99.2679 119.626C99.2775 119.624 99.287 119.623 99.2966 119.621C99.3664 119.607 99.4367 119.603 99.5084 119.605C99.5185 119.606 99.5284 119.606 99.5401 119.607C99.5503 119.608 99.5604 119.609 99.5719 119.61C99.5935 119.611 99.614 119.614 99.6345 119.617C99.6581 119.621 99.6816 119.625 99.704 119.63C99.7248 119.634 99.7459 119.64 99.767 119.646C99.791 119.653 99.814 119.661 99.837 119.669C99.8553 119.675 99.8737 119.682 99.8923 119.689C99.8923 119.689 99.8936 119.689 99.8956 119.691C99.9079 119.696 99.9205 119.702 99.9328 119.707C99.9703 119.723 100.007 119.743 100.042 119.763C100.053 119.769 100.063 119.776 100.073 119.782C100.084 119.789 100.094 119.795 100.104 119.803C100.126 119.817 100.146 119.832 100.166 119.848C100.352 119.988 100.508 120.186 100.606 120.428L100.603 120.43Z" fill="#F5FAAF"/>
<path d="M81.5717 133.034L58.9496 142.211C58.9312 142.219 58.9126 142.226 58.8951 142.231C58.8751 142.238 58.8549 142.243 58.8344 142.247C58.3722 142.355 57.8419 142.031 57.5896 141.474C57.5814 141.454 57.5718 141.435 57.5636 141.415L56.3332 138.388C56.325 138.369 56.3179 138.347 56.3097 138.328C56.0853 137.704 56.2841 137.048 56.7711 136.851L76.6137 128.8C76.6403 128.841 76.6668 128.881 76.6947 128.921C77.6547 130.34 79.2371 132.126 81.5143 133.01C81.5329 133.017 81.5512 133.024 81.5698 133.031L81.5717 133.034Z" fill="#EFF779"/>
<path d="M100.66 114.318L101.89 117.345C101.988 117.586 102.014 117.836 101.979 118.067C101.943 118.31 101.838 118.532 101.677 118.698C101.628 118.749 101.574 118.795 101.515 118.834C101.461 118.87 101.405 118.9 101.343 118.925L59.1176 136.056C58.948 136.126 58.7677 136.142 58.5931 136.115C58.2215 136.058 57.8685 135.801 57.6718 135.415C57.6627 135.399 57.6551 135.382 57.6474 135.365C57.6392 135.345 57.6296 135.325 57.6214 135.306L56.391 132.279C56.3828 132.26 56.3757 132.238 56.3675 132.219C56.1455 131.593 56.3934 130.919 56.9384 130.699L99.1637 113.568C99.2255 113.543 99.2874 113.525 99.3519 113.513C99.4217 113.499 99.492 113.495 99.5637 113.498C99.7941 113.505 100.025 113.591 100.221 113.741C100.408 113.882 100.562 114.079 100.662 114.321L100.66 114.318Z" fill="#F5FAAF"/>
<path d="M81.6292 126.923L59.007 136.101C58.8557 136.162 58.694 136.172 58.5337 136.139C58.1938 136.069 57.8647 135.803 57.6717 135.415C57.6627 135.399 57.655 135.382 57.6474 135.365C57.6392 135.345 57.6296 135.325 57.6214 135.306L56.391 132.279C56.3827 132.26 56.3756 132.238 56.3674 132.219C56.143 131.595 56.3432 130.939 56.8289 130.742L76.6728 122.691C77.6052 124.1 79.1688 125.919 81.436 126.847C81.4995 126.872 81.5643 126.898 81.6289 126.922L81.6292 126.923Z" fill="#EFF779"/>
<path d="M101.932 107.559L103.163 110.586C103.261 110.827 103.287 111.077 103.252 111.308C103.215 111.551 103.11 111.773 102.95 111.939C102.9 111.99 102.846 112.035 102.788 112.075C102.734 112.111 102.677 112.141 102.615 112.166L60.3899 129.297C59.8452 129.518 59.1967 129.207 58.9194 128.604C58.9112 128.585 58.9016 128.565 58.8934 128.545L57.663 125.519C57.6548 125.499 57.6477 125.478 57.6395 125.458C57.4342 124.881 57.6314 124.259 58.0922 123.995C58.1291 123.973 58.1694 123.954 58.2101 123.937L100.435 106.806C100.497 106.781 100.559 106.763 100.624 106.752C100.693 106.738 100.764 106.734 100.835 106.736C101.066 106.743 101.297 106.829 101.493 106.979C101.679 107.119 101.834 107.317 101.932 107.559Z" fill="#F5FAAF"/>
<path d="M82.9015 120.164L60.2794 129.342C59.7937 129.539 59.1928 129.209 58.9183 128.606C58.9101 128.586 58.9005 128.567 58.8923 128.547L57.6619 125.521C57.6537 125.501 57.6466 125.48 57.6384 125.46C57.4304 124.883 57.5857 124.28 57.9951 124.036C58.0282 124.016 58.0629 123.998 58.0999 123.984L77.9438 115.932C77.9438 115.932 77.9476 115.937 77.9482 115.94C78.9068 117.388 80.5303 119.265 82.8999 120.163L82.9015 120.164Z" fill="#EFF779"/>
<path d="M94.213 104.459L95.4434 107.486C95.5414 107.726 95.5674 107.977 95.5324 108.207C95.4957 108.451 95.3907 108.672 95.2304 108.838C95.1808 108.889 95.1272 108.934 95.0684 108.974C95.0509 108.987 95.032 108.999 95.0139 109.008C94.9986 109.017 94.983 109.024 94.9691 109.033C94.9614 109.037 94.9535 109.04 94.9458 109.045C94.9302 109.052 94.9132 109.06 94.896 109.066L52.6707 126.197C52.1259 126.418 51.4774 126.107 51.2002 125.504C51.192 125.484 51.1824 125.465 51.1742 125.445L49.9438 122.419C49.9356 122.399 49.9287 122.379 49.9203 122.358C49.6983 121.732 49.9461 121.058 50.4912 120.838L92.7165 103.708C92.7348 103.7 92.7534 103.693 92.7723 103.688C92.8164 103.673 92.861 103.662 92.905 103.654C92.9748 103.64 93.0451 103.636 93.1168 103.639C93.1526 103.64 93.1888 103.643 93.2241 103.649C93.2459 103.651 93.2681 103.655 93.2903 103.66C93.2916 103.659 93.2944 103.659 93.2977 103.661C93.3198 103.665 93.3423 103.67 93.3636 103.678C93.3677 103.677 93.371 103.679 93.3743 103.681C93.3953 103.687 93.415 103.693 93.435 103.7C93.4837 103.716 93.5319 103.736 93.5779 103.76C93.5921 103.767 93.6063 103.774 93.6208 103.783C93.6238 103.783 93.6255 103.784 93.6287 103.787C93.638 103.79 93.6463 103.796 93.6558 103.801C93.6572 103.801 93.6591 103.803 93.6608 103.804C93.6769 103.814 93.6917 103.824 93.7081 103.835C93.7311 103.85 93.7524 103.864 93.7743 103.881C93.9607 104.023 94.1166 104.22 94.2149 104.462L94.213 104.459Z" fill="#F5FAAF"/>
<path d="M75.1837 117.064L52.5615 126.241C52.0759 126.438 51.475 126.109 51.2018 125.505C51.1936 125.485 51.1841 125.466 51.1759 125.446L49.9454 122.42C49.9372 122.4 49.9304 122.38 49.9219 122.359C49.6975 121.735 49.898 121.081 50.3834 120.883L70.2276 112.833C70.2522 112.871 70.2768 112.908 70.3042 112.946C71.2691 114.375 72.8666 116.179 75.1714 117.059C75.1746 117.061 75.1807 117.063 75.1837 117.064Z" fill="#EFF779"/>
<path d="M95.1898 97.9655L96.4202 100.992C96.5182 101.233 96.5442 101.484 96.5092 101.714C96.4725 101.957 96.3675 102.179 96.2071 102.345C96.1576 102.396 96.104 102.441 96.0452 102.481C95.9913 102.517 95.9346 102.547 95.8728 102.572L53.6475 119.703C53.4844 119.77 53.3101 119.788 53.1405 119.765C52.7618 119.714 52.3979 119.453 52.1992 119.057C52.1918 119.042 52.1844 119.026 52.177 119.01C52.1688 118.991 52.1592 118.971 52.151 118.952L50.9206 115.925C50.9124 115.905 50.9053 115.884 50.897 115.864C50.6915 115.285 50.889 114.665 51.3498 114.401C51.3867 114.38 51.4256 114.36 51.4677 114.343L93.693 97.2126C93.7549 97.1874 93.8167 97.1693 93.8813 97.1578C93.951 97.1439 94.0213 97.1397 94.093 97.1425C94.3234 97.149 94.5541 97.2351 94.7506 97.3849C94.9369 97.5268 95.0915 97.7235 95.1898 97.9655Z" fill="#F5FAAF"/>
<path d="M76.1589 110.569L53.5367 119.747C53.3906 119.806 53.2336 119.817 53.0798 119.788C52.7339 119.724 52.3952 119.453 52.1992 119.057C52.1918 119.042 52.1844 119.026 52.1771 119.01C52.1689 118.991 52.1593 118.971 52.1511 118.952L50.9206 115.925C50.9124 115.905 50.9053 115.884 50.8971 115.864C50.6891 115.287 50.8445 114.684 51.2538 114.44C51.2869 114.421 51.3216 114.403 51.3586 114.388L71.2012 106.337C71.2012 106.337 71.205 106.342 71.2069 106.344C72.1409 107.755 73.7072 109.573 75.978 110.497C76.0371 110.522 76.0973 110.546 76.1586 110.568L76.1589 110.569Z" fill="#EFF779"/>
<path d="M89.9104 93.8748L91.1408 96.9013C91.2388 97.142 91.2648 97.3928 91.2298 97.6231C91.1932 97.8666 91.0881 98.0881 90.9278 98.2539C90.8783 98.3051 90.8247 98.35 90.7658 98.3902C90.7483 98.4022 90.7294 98.4145 90.71 98.4241C90.6999 98.4304 90.6895 98.4353 90.678 98.4419C90.6679 98.4482 90.6575 98.4531 90.6457 98.4583C90.6277 98.4676 90.6107 98.4753 90.5921 98.4818L48.3668 115.613C47.822 115.834 47.1735 115.523 46.8963 114.92C46.8881 114.9 46.8785 114.881 46.87 114.86L45.6396 111.833C45.6314 111.814 45.6243 111.792 45.6161 111.773C45.3941 111.147 45.6419 110.473 46.187 110.253L88.4123 93.1221C88.4741 93.097 88.536 93.0789 88.6006 93.0674C88.6703 93.0534 88.7406 93.0493 88.8123 93.052C89.0427 93.0585 89.2734 93.1446 89.4698 93.2945C89.6562 93.4364 89.8122 93.6328 89.9104 93.8748Z" fill="#F5FAAF"/>
<path d="M70.8807 106.478L48.2586 115.656C47.7729 115.852 47.172 115.523 46.8975 114.92C46.8893 114.9 46.8797 114.881 46.8713 114.859L45.6408 111.833C45.6326 111.813 45.6255 111.792 45.6173 111.772C45.3929 111.149 45.5934 110.494 46.0788 110.296L65.9227 102.245C66.8797 103.692 68.5004 105.569 70.8665 106.471C70.8711 106.473 70.8758 106.475 70.8788 106.476L70.8807 106.478Z" fill="#EFF779"/>
<path d="M103.211 136.684L105.386 142.043L105.866 141.848L103.69 136.489L103.211 136.684Z" fill="#EFF779"/>
<path d="M101.59 137.35L103.767 142.709L104.246 142.514L102.07 137.155L101.59 137.35Z" fill="#EFF779"/>
<path d="M99.6347 138.136L101.811 143.495L102.291 143.3L100.114 137.941L99.6347 138.136Z" fill="#EFF779"/>
<path d="M96.6542 139.345L98.8295 144.704L99.3091 144.509L97.1338 139.15L96.6542 139.345Z" fill="#EFF779"/>
<path d="M93.4961 140.626L95.6714 145.985L96.1511 145.791L93.9758 140.431L93.4961 140.626Z" fill="#EFF779"/>
<path d="M88.6561 142.59L90.8314 147.949L91.311 147.754L89.1357 142.395L88.6561 142.59Z" fill="#EFF779"/>
<path d="M84.1239 144.435L86.3001 149.794L86.7797 149.599L84.6035 144.241L84.1239 144.435Z" fill="#EFF779"/>
<path d="M80.0774 146.07L82.2527 151.429L82.7324 151.234L80.5571 145.875L80.0774 146.07Z" fill="#EFF779"/>
<path d="M104.759 136.056L106.934 141.415L107.414 141.22L105.239 135.861L104.759 136.056Z" fill="#EFF779"/>
<path d="M105.781 135.648L107.958 141.007L108.437 140.812L106.261 135.454L105.781 135.648Z" fill="#EFF779"/>
<path d="M106.767 135.242L108.943 140.601L109.422 140.406L107.247 135.047L106.767 135.242Z" fill="#EFF779"/>
<path d="M107.504 134.943L109.683 140.302L109.983 140.181C110.045 140.156 110.101 140.126 110.155 140.089L107.991 134.768C107.928 134.78 107.865 134.797 107.803 134.822L107.503 134.944L107.504 134.943Z" fill="#EFF779"/>
<path d="M108.203 134.752L110.317 139.953C110.477 139.787 110.582 139.566 110.619 139.322L108.859 134.994C108.663 134.845 108.434 134.759 108.202 134.751L108.203 134.752Z" fill="#EFF779"/>
<path d="M87.4896 136.82L89.6649 142.179L90.1446 141.985L87.9692 136.625L87.4896 136.82Z" fill="#EFF779"/>
<path d="M82.9442 138.66L85.1195 144.019L85.5991 143.825L83.4238 138.466L82.9442 138.66Z" fill="#EFF779"/>
<path d="M78.9096 140.3L81.0849 145.659L81.5645 145.465L79.3892 140.106L78.9096 140.3Z" fill="#EFF779"/>
<path d="M106.245 135.454L104.067 130.096L103.646 130.267C103.668 130.255 103.688 130.243 103.708 130.229L101.544 124.908C101.513 124.915 101.482 124.921 101.449 124.93L99.3385 119.737L99.5253 119.662L101.617 124.81C101.778 124.644 101.883 124.423 101.919 124.179L100.159 119.85C99.9981 119.728 99.8118 119.65 99.6227 119.622L99.7899 119.555L97.6118 114.196L97.1313 114.39L99.2616 119.63C99.2068 119.641 99.1546 119.658 99.1018 119.678L98.8016 119.799L100.98 125.158L101.069 125.122L103.231 130.442L103.531 130.321C103.55 130.313 103.566 130.304 103.585 130.296L105.76 135.649L106.24 135.455L106.245 135.454Z" fill="#EFF779"/>
<path d="M104.613 129.873L106.789 135.232L107.268 135.038L105.093 129.679L104.613 129.873Z" fill="#EFF779"/>
<path d="M105.602 129.48L107.776 134.84L108.256 134.646L106.082 129.286L105.602 129.48Z" fill="#EFF779"/>
<path d="M106.337 129.175L108.515 134.533L108.815 134.412C108.877 134.387 108.934 134.357 108.988 134.321L106.824 129C106.761 129.013 106.698 129.03 106.636 129.055L106.336 129.176L106.337 129.175Z" fill="#EFF779"/>
<path d="M107.036 128.982L109.149 134.183C109.31 134.017 109.415 133.796 109.451 133.552L107.691 129.224C107.495 129.075 107.266 128.989 107.034 128.981L107.036 128.982Z" fill="#EFF779"/>
<path d="M99.4193 131.992L97.2412 126.633L97.1531 126.669L94.9897 121.349L94.5106 121.543L96.6888 126.902L96.7769 126.865L98.9373 132.178L98.4686 132.367L100.647 137.726L101.127 137.531L98.952 132.181L99.4193 131.992Z" fill="#EFF779"/>
<path d="M93.6695 128.082L93.58 128.118L91.418 122.798L90.9376 122.992L93.1157 128.351L93.2052 128.314L95.3672 133.635L95.4857 133.587L97.6608 138.938L98.141 138.742L95.9628 133.383L95.8444 133.431L93.6695 128.082Z" fill="#EFF779"/>
<path d="M101.757 124.891L103.871 130.092C104.032 129.926 104.137 129.705 104.173 129.461L102.413 125.133C102.217 124.984 101.988 124.898 101.756 124.89L101.757 124.891Z" fill="#EFF779"/>
<path d="M88.4322 124.01L87.9517 124.204L90.1299 129.563L90.2194 129.526L92.3781 134.838L92.3255 134.86L94.5037 140.218L94.9828 140.024L92.809 134.673L92.8615 134.651L90.6837 129.294L90.5939 129.329L88.4322 124.01Z" fill="#EFF779"/>
<path d="M85.2737 125.291L84.7946 125.485L86.9727 130.843L87.0608 130.807L89.2242 136.127L89.7046 135.933L87.5251 130.575L87.437 130.611L85.2737 125.291Z" fill="#EFF779"/>
<path d="M80.4332 127.254L79.9531 127.449L82.1312 132.808L82.2207 132.772L84.384 138.092L84.8629 137.896L82.6847 132.538L82.5966 132.574L80.4332 127.254Z" fill="#EFF779"/>
<path d="M75.901 129.092L75.4208 129.288L77.6003 134.646L77.6884 134.61L79.8518 139.931L80.3306 139.735L78.1524 134.377L78.0643 134.413L75.901 129.092Z" fill="#EFF779"/>
<path d="M71.8543 130.735L71.3738 130.929L73.5519 136.287L73.6414 136.251L75.8034 141.572L76.2839 141.377L74.1057 136.019L74.0163 136.055L71.8543 130.735Z" fill="#EFF779"/>
<path d="M96.5359 120.721L96.0571 120.916L98.2352 126.275L98.3233 126.239L100.483 131.55L100.416 131.577L102.594 136.936L103.075 136.74L100.9 131.391L100.967 131.363L98.7873 126.005L98.6992 126.041L96.5359 120.721Z" fill="#EFF779"/>
<path d="M97.5586 120.307L97.1715 120.463L95.047 115.237L94.5679 115.431L96.746 120.79L97.1318 120.634L99.2563 125.86L99.3458 125.824L101.508 131.144L101.988 130.948L99.8101 125.591L99.7206 125.628L97.5586 120.307Z" fill="#EFF779"/>
<path d="M92.9477 116.089L95.123 121.448L95.6027 121.253L93.4274 115.894L92.9477 116.089Z" fill="#EFF779"/>
<path d="M93.1196 122.107L92.8854 122.202L95.0649 127.561L95.153 127.525L97.315 132.845L97.7952 132.65L95.6171 127.291L95.529 127.327L93.4192 122.14L93.6534 122.044L91.4753 116.686L90.9951 116.882L93.1196 122.107Z" fill="#EFF779"/>
<path d="M88.008 118.093L90.1815 123.453L90.6612 123.258L88.4877 117.898L88.008 118.093Z" fill="#EFF779"/>
<path d="M84.8556 119.37L87.0309 124.729L87.5106 124.534L85.3353 119.175L84.8556 119.37Z" fill="#EFF779"/>
<path d="M80.0027 121.336L82.178 126.695L82.6576 126.501L80.4823 121.142L80.0027 121.336Z" fill="#EFF779"/>
<path d="M75.4774 123.178L77.6536 128.536L78.1332 128.342L75.957 122.983L75.4774 123.178Z" fill="#EFF779"/>
<path d="M71.4372 124.815L73.6125 130.174L74.0921 129.979L71.9168 124.62L71.4372 124.815Z" fill="#EFF779"/>
<path d="M98.2389 120.03L98.0654 120.102L100.243 125.459L100.331 125.423L102.492 130.735L102.042 130.918L104.22 136.276L104.699 136.081L102.524 130.732L102.974 130.549L100.796 125.191L100.708 125.227L98.5978 120.039L98.7716 119.969L96.5934 114.61L96.1143 114.804L98.2389 120.03Z" fill="#EFF779"/>
<path d="M98.1257 113.987L100.301 119.346L100.781 119.152L98.6053 113.793L98.1257 113.987Z" fill="#EFF779"/>
<path d="M101.515 118.834L99.352 113.513C99.289 113.526 99.2255 113.543 99.1637 113.568L98.8636 113.689L101.042 119.048L101.342 118.927C101.404 118.902 101.46 118.872 101.514 118.835L101.515 118.834Z" fill="#EFF779"/>
<path d="M101.979 118.067L100.219 113.738C100.023 113.59 99.7938 113.503 99.5618 113.496L101.676 118.696C101.836 118.531 101.941 118.309 101.978 118.066L101.979 118.067Z" fill="#EFF779"/>
<path d="M95.8443 108.671L98.0196 114.03L98.4992 113.836L96.3239 108.477L95.8443 108.671Z" fill="#EFF779"/>
<path d="M89.286 111.331L91.4613 116.69L91.9409 116.495L89.7656 111.136L89.286 111.331Z" fill="#EFF779"/>
<path d="M86.128 112.612L88.3033 117.971L88.7829 117.777L86.6076 112.418L86.128 112.612Z" fill="#EFF779"/>
<path d="M81.2879 114.576L83.4632 119.935L83.9428 119.74L81.7675 114.381L81.2879 114.576Z" fill="#EFF779"/>
<path d="M76.7556 116.415L78.9309 121.774L79.4105 121.579L77.2352 116.22L76.7556 116.415Z" fill="#EFF779"/>
<path d="M72.7088 118.064L74.8851 123.422L75.3647 123.228L73.1884 117.869L72.7088 118.064Z" fill="#EFF779"/>
<path d="M97.391 108.044L99.5663 113.403L100.046 113.208L97.8707 107.849L97.391 108.044Z" fill="#EFF779"/>
<path d="M98.4117 107.629L100.587 112.988L101.067 112.794L98.8913 107.435L98.4117 107.629Z" fill="#EFF779"/>
<path d="M99.3865 107.23L101.562 112.589L102.041 112.395L99.8662 107.036L99.3865 107.23Z" fill="#EFF779"/>
<path d="M100.136 106.93L102.314 112.289L102.614 112.168C102.676 112.143 102.733 112.113 102.787 112.076L100.623 106.755C100.56 106.767 100.496 106.784 100.435 106.809L100.135 106.931L100.136 106.93Z" fill="#EFF779"/>
<path d="M100.836 106.738L102.95 111.939C103.11 111.773 103.215 111.551 103.252 111.308L101.492 106.979C101.295 106.831 101.066 106.744 100.834 106.737L100.836 106.738Z" fill="#EFF779"/>
<path d="M90.2991 110.93L90.7796 110.736L88.6014 105.378L88.133 105.568L86.0082 100.341L86.4766 100.15L84.2988 94.7932L83.8183 94.9875L85.9932 100.337L85.5248 100.527L87.7043 105.886L88.1713 105.695L90.2991 110.93Z" fill="#EFF779"/>
<path d="M86.4948 106.232L88.6682 111.591L89.1479 111.397L86.9745 106.037L86.4948 106.232Z" fill="#EFF779"/>
<path d="M78.4111 109.511L80.5864 114.87L81.066 114.675L78.8907 109.316L78.4111 109.511Z" fill="#EFF779"/>
<path d="M73.5575 111.476L75.7328 116.835L76.2124 116.64L74.0371 111.281L73.5575 111.476Z" fill="#EFF779"/>
<path d="M69.0389 113.314L71.2142 118.674L71.6939 118.479L69.5186 113.12L69.0389 113.314Z" fill="#EFF779"/>
<path d="M64.9775 114.956L67.1528 120.315L67.6325 120.121L65.4572 114.761L64.9775 114.956Z" fill="#EFF779"/>
<path d="M91.8455 110.304L92.2704 110.13L94.4456 115.481L94.926 115.287L92.7479 109.928L92.3227 110.1L90.1478 104.751L90.0819 104.777L87.9574 99.5511L88.0231 99.5237L85.8449 94.1651L85.3647 94.3608L87.5396 99.7101L87.4739 99.7375L89.6521 105.096L89.7177 105.069L91.8455 110.304Z" fill="#EFF779"/>
<path d="M90.6808 104.529L92.8589 109.887L93.3385 109.693L91.1604 104.335L90.6808 104.529Z" fill="#EFF779"/>
<path d="M93.2183 103.648L93.3026 103.614L91.1244 98.2558L90.7033 98.4269C90.7252 98.4154 90.7455 98.4028 90.7655 98.3888L88.6018 93.0671C88.5389 93.0797 88.4754 93.0967 88.4136 93.1219L88.1134 93.2431L90.2916 98.6017L90.5917 98.4805C90.61 98.4726 90.6267 98.4635 90.6451 98.4556L92.7723 103.688C92.7537 103.694 92.7348 103.7 92.7165 103.708L92.4163 103.829L94.5915 109.179L94.3296 109.286L92.1545 103.935L91.7044 104.118L89.5796 98.8907L90.0297 98.7082L87.8516 93.3496L87.3711 93.5439L89.5463 98.8946L89.0962 99.0771L91.2743 104.436L91.7244 104.253L93.8522 109.488L94.2166 109.34L96.3915 114.689L96.8719 114.495L94.6968 109.144L94.8944 109.065C94.9562 109.04 95.0128 109.01 95.0667 108.973L92.9469 103.757L93.1338 103.681L95.2301 108.837C95.3904 108.671 95.4954 108.45 95.5321 108.206L93.7735 103.877C93.6057 103.75 93.4137 103.672 93.218 103.647L93.2183 103.648Z" fill="#EFF779"/>
<path d="M74.5461 104.985L76.7224 110.344L77.2019 110.149L75.0257 104.79L74.5461 104.985Z" fill="#EFF779"/>
<path d="M70.0141 106.819L72.1895 112.179L72.6691 111.984L70.4938 106.625L70.0141 106.819Z" fill="#EFF779"/>
<path d="M65.9681 108.462L68.1434 113.821L68.623 113.627L66.4477 108.268L65.9681 108.462Z" fill="#EFF779"/>
<path d="M91.6585 98.0345L93.8338 103.394L94.3134 103.199L92.1381 97.8399L91.6585 98.0345Z" fill="#EFF779"/>
<path d="M92.6578 97.634L94.8331 102.993L95.3128 102.799L93.1375 97.4394L92.6578 97.634Z" fill="#EFF779"/>
<path d="M93.3946 97.3349L95.5727 102.694L95.8729 102.572C95.9347 102.547 95.9913 102.517 96.0452 102.481L93.8819 97.1606C93.8189 97.1731 93.7555 97.1901 93.6936 97.2153L93.3935 97.3365L93.3946 97.3349Z" fill="#EFF779"/>
<path d="M96.5089 101.712L94.7503 97.3836C94.5541 97.2351 94.3248 97.1487 94.0928 97.1411L96.2066 102.342C96.3669 102.176 96.472 101.955 96.5086 101.711L96.5089 101.712Z" fill="#EFF779"/>
<path d="M82.1993 95.6438L84.3746 101.003L84.8543 100.808L82.679 95.4492L82.1993 95.6438Z" fill="#EFF779"/>
<path d="M80.7258 96.2423L80.2467 96.4363L82.4248 101.795L82.5433 101.747L84.6678 106.973L84.5496 107.022L86.7275 112.379L87.2065 112.185L85.0788 106.95L85.1972 106.902L83.0191 101.544L82.9006 101.592L80.7258 96.2423Z" fill="#EFF779"/>
<path d="M79.4356 102.998L79.3817 103.02L81.5598 108.379L81.6137 108.356L83.7415 113.591L84.2206 113.397L82.0425 108.039L81.9897 108.059L79.8652 102.834L79.9177 102.812L77.7396 97.453L77.2607 97.6484L79.4356 102.998Z" fill="#EFF779"/>
<path d="M74.1078 98.9264L76.2831 104.286L76.7628 104.091L74.5875 98.7318L74.1078 98.9264Z" fill="#EFF779"/>
<path d="M69.268 100.891L71.4433 106.25L71.9229 106.056L69.7476 100.697L69.268 100.891Z" fill="#EFF779"/>
<path d="M64.7344 102.734L66.9078 108.094L67.3875 107.9L65.2141 102.54L64.7344 102.734Z" fill="#EFF779"/>
<path d="M60.686 104.376L62.8622 109.735L63.3418 109.54L61.1656 104.182L60.686 104.376Z" fill="#EFF779"/>
<path d="M86.3845 93.9447L88.5579 99.3046L89.0376 99.1101L86.8642 93.7503L86.3845 93.9447Z" fill="#EFF779"/>
<path d="M88.8136 93.0518L90.9274 98.2526C91.0878 98.0868 91.1928 97.8652 91.2294 97.6218L89.4695 93.2931C89.2733 93.1447 89.044 93.0583 88.812 93.0507L88.8136 93.0518Z" fill="#EFF779"/>
<path d="M108.702 101.586L111.896 100.898C112.151 100.843 112.401 100.861 112.624 100.935C112.857 101.013 113.057 101.154 113.193 101.341C113.236 101.398 113.271 101.46 113.298 101.525C113.324 101.584 113.345 101.647 113.358 101.711L122.923 146.247C123.046 146.821 122.628 147.405 121.986 147.575C121.966 147.579 121.944 147.585 121.924 147.59L118.729 148.278C118.709 148.282 118.687 148.287 118.666 148.291C118.012 148.4 117.391 148.04 117.267 147.466L107.703 102.93C107.697 102.901 107.691 102.872 107.689 102.844C107.686 102.832 107.685 102.819 107.685 102.806C107.683 102.793 107.683 102.779 107.683 102.766C107.681 102.756 107.682 102.746 107.683 102.736C107.681 102.665 107.688 102.594 107.703 102.526C107.705 102.515 107.708 102.505 107.71 102.494C107.712 102.484 107.714 102.474 107.718 102.464C107.724 102.445 107.73 102.424 107.736 102.404C107.739 102.392 107.744 102.38 107.749 102.369C107.752 102.358 107.756 102.347 107.761 102.338C107.768 102.318 107.777 102.299 107.786 102.279C107.797 102.256 107.808 102.234 107.821 102.213C107.831 102.196 107.84 102.18 107.851 102.163C107.851 102.163 107.852 102.161 107.853 102.16C107.86 102.149 107.867 102.137 107.875 102.127C107.898 102.094 107.923 102.061 107.951 102.029C107.959 102.019 107.967 102.01 107.975 102.002C107.984 101.993 107.992 101.984 108.001 101.974C108.019 101.956 108.036 101.937 108.054 101.92C108.226 101.761 108.447 101.643 108.702 101.587L108.702 101.586Z" fill="#EFF779"/>
<path d="M117.824 122.503L122.949 146.363C123.059 146.875 122.629 147.41 121.988 147.575C121.967 147.579 121.946 147.585 121.925 147.59L118.731 148.278C118.71 148.282 118.688 148.286 118.668 148.291C118.015 148.404 117.403 148.094 117.293 147.581L112.798 126.653C112.843 126.632 112.887 126.613 112.932 126.593C114.509 125.888 116.564 124.624 117.826 122.504L117.824 122.503Z" fill="#EFF779"/>
<path d="M108.631 107.283L108.739 107.789L114.397 106.576L114.288 106.07L108.631 107.283Z" fill="#F5FAAF"/>
<path d="M108.998 108.992L109.106 109.498L114.763 108.282L114.654 107.776L108.998 108.992Z" fill="#F5FAAF"/>
<path d="M109.435 111.033L109.543 111.539L115.2 110.324L115.091 109.818L109.435 111.033Z" fill="#F5FAAF"/>
<path d="M110.111 114.183L110.22 114.689L115.877 113.474L115.768 112.968L110.111 114.183Z" fill="#F5FAAF"/>
<path d="M110.83 117.527L110.939 118.033L116.595 116.817L116.487 116.311L110.83 117.527Z" fill="#F5FAAF"/>
<path d="M111.937 122.617L112.046 123.122L117.703 121.908L117.594 121.402L111.937 122.617Z" fill="#F5FAAF"/>
<path d="M112.952 127.413L113.061 127.919L118.718 126.704L118.609 126.198L112.952 127.413Z" fill="#F5FAAF"/>
<path d="M113.883 131.692L113.992 132.198L119.649 130.985L119.541 130.479L113.883 131.692Z" fill="#F5FAAF"/>
<path d="M108.276 105.635L108.385 106.141L114.042 104.927L113.933 104.421L108.276 105.635Z" fill="#F5FAAF"/>
<path d="M108.059 104.555L108.167 105.061L113.824 103.847L113.715 103.341L108.059 104.555Z" fill="#F5FAAF"/>
<path d="M107.821 103.516L107.93 104.022L113.587 102.807L113.478 102.301L107.821 103.516Z" fill="#F5FAAF"/>
<path d="M107.771 103.246L113.427 102.028L113.36 101.712C113.347 101.646 113.326 101.585 113.3 101.526L107.683 102.736C107.683 102.801 107.69 102.865 107.703 102.931L107.771 103.247L107.771 103.246Z" fill="#F5FAAF"/>
<path d="M107.703 102.524L113.193 101.341C113.057 101.154 112.857 101.013 112.624 100.935L108.054 101.919C107.874 102.086 107.749 102.297 107.702 102.524L107.703 102.524Z" fill="#F5FAAF"/>
<g style="mix-blend-mode:multiply">
<path d="M70.6618 78.7906C81.5237 76.6165 88.5673 66.0521 86.394 55.1942C84.2207 44.3364 73.6535 37.2969 62.7916 39.471C51.9297 41.6451 44.8862 52.2096 47.0595 63.0674C49.2328 73.9252 59.7999 80.9647 70.6618 78.7906Z" fill="#EFF779"/>
<path d="M69.5579 80.1495C80.4198 77.9753 87.4633 67.4109 85.29 56.5531C83.1167 45.6952 72.5496 38.6557 61.6877 40.8298C50.8258 43.0039 43.7822 53.5684 45.9555 64.4262C48.1288 75.284 58.6959 82.3236 69.5579 80.1495Z" fill="#F5FAAF"/>
<g style="mix-blend-mode:multiply">
<path d="M72.7513 77.5361C66.7823 79.9739 59.6958 79.182 54.3337 74.8562C50.5359 71.7917 48.1592 67.4314 47.642 62.5796C47.1247 57.7277 48.5291 52.9648 51.5952 49.1679C54.6613 45.371 59.0234 42.9945 63.877 42.4767C68.7307 41.959 73.495 43.3622 77.2928 46.4267C85.1327 52.7528 86.3621 64.2765 80.0313 72.1149C78.03 74.5921 75.5098 76.4107 72.7502 77.5377L72.7513 77.5361ZM59.2903 44.7403C56.6399 45.8227 54.2918 47.5628 52.4435 49.8515C49.5598 53.4227 48.2394 57.9014 48.7271 62.4633C49.2134 67.0256 51.4484 71.1254 55.019 74.0078C60.0607 78.0764 66.725 78.8205 72.3378 76.5293C74.933 75.4694 77.3029 73.7604 79.1841 71.4296C85.1363 64.0596 83.9802 53.2224 76.6085 47.2734C73.0379 44.391 68.5565 43.072 63.9929 43.5601C62.3545 43.7345 60.7741 44.1347 59.2906 44.7417L59.2903 44.7403Z" fill="#EFF779"/>
</g>
<g style="mix-blend-mode:multiply">
<path d="M71.5209 62.0129C71.2435 61.7285 70.9594 61.518 70.6686 61.3799C70.3777 61.2419 70.054 61.1744 69.7013 61.1753C69.3475 61.1778 68.9541 61.2452 68.522 61.3757C68.0889 61.508 67.5962 61.7047 67.0429 61.9691C66.085 62.4154 65.1816 62.7854 64.3328 63.0805C63.4827 63.3758 62.6759 63.5458 61.9111 63.5922C61.1463 63.6386 60.4155 63.5346 59.7169 63.279C59.0184 63.0234 58.3458 62.5635 57.6997 61.902C57.1393 61.3272 56.7288 60.7053 56.4705 60.033C56.2121 59.3608 56.1013 58.6647 56.1362 57.9437C56.1712 57.2226 56.3457 56.495 56.6581 55.7597C56.9708 55.0258 57.4261 54.3074 58.0214 53.6066L55.9026 51.4377L57.6487 49.7328L59.7978 51.9325C60.5029 51.4031 61.2318 51.0139 61.9861 50.7662C62.7391 50.5188 63.4894 50.4213 64.2363 50.4709C64.9822 50.5221 65.7172 50.7249 66.4415 51.0806C67.1658 51.4363 67.858 51.952 68.5183 52.6277L65.3627 55.7072C64.5702 54.8972 63.7981 54.4658 63.0453 54.4159C62.2926 54.366 61.6138 54.6356 61.0102 55.2243C60.683 55.5444 60.4455 55.865 60.2981 56.1875C60.1506 56.51 60.0784 56.8246 60.0804 57.1329C60.0823 57.4411 60.1532 57.7384 60.2919 58.0264C60.4307 58.3144 60.6222 58.5819 60.8658 58.8318C61.1107 59.0815 61.3682 59.2732 61.6377 59.4041C61.9089 59.5362 62.2178 59.6009 62.5645 59.5984C62.9114 59.5972 63.3059 59.5282 63.7497 59.3924C64.1935 59.2567 64.7128 59.0574 65.3071 58.792C66.2705 58.3659 67.1767 58.0096 68.0254 57.7216C68.8741 57.4337 69.6832 57.2675 70.4515 57.2246C71.2198 57.1818 71.9523 57.2869 72.6512 57.5439C73.3497 57.7995 74.0188 58.2558 74.658 58.9116C75.2395 59.5064 75.6568 60.1411 75.9116 60.8169C76.1664 61.4927 76.2726 62.1869 76.2305 62.9008C76.1884 63.6147 76.003 64.3374 75.6728 65.0691C75.3426 65.8009 74.8797 66.5165 74.2843 67.2174L76.2545 69.2339L74.5191 70.9282L72.5579 68.9213C71.8942 69.451 71.182 69.8879 70.4195 70.2369C69.6567 70.5844 68.8722 70.7812 68.0615 70.8255C67.2521 70.8694 66.4315 70.7293 65.6025 70.4045C64.7734 70.0798 63.961 69.5113 63.1696 68.6997L66.3252 65.6202C66.794 66.0996 67.2523 66.4345 67.7 66.6237C68.1476 66.8129 68.5794 66.8943 68.9937 66.8669C69.4079 66.8394 69.7962 66.7247 70.1595 66.5211C70.5231 66.3189 70.8534 66.0708 71.1521 65.7791C71.4936 65.4448 71.7521 65.1086 71.9245 64.7683C72.0968 64.428 72.1953 64.0954 72.2169 63.7696C72.2398 63.4436 72.1903 63.132 72.0707 62.8331C71.9497 62.5344 71.7683 62.2607 71.5234 62.011L71.5209 62.0129Z" fill="#EFF779"/>
</g>
</g>
<g style="mix-blend-mode:multiply">
<path d="M86.1407 35.1432C94.151 42.7945 106.845 42.506 114.493 34.4987C122.142 26.4914 121.849 13.7976 113.838 6.14628C105.828 -1.50506 93.134 -1.21652 85.4855 6.79077C77.8371 14.798 78.1304 27.4919 86.1407 35.1432Z" fill="#EFF779"/>
<path d="M84.3945 35.0181C92.4048 42.6695 105.099 42.3809 112.747 34.3737C120.396 26.3664 120.102 13.6725 112.092 6.0212C104.082 -1.63014 91.3878 -1.34159 83.7393 6.66569C76.0909 14.673 76.3842 27.3668 84.3945 35.0181Z" fill="#F5FAAF"/>
<g style="mix-blend-mode:multiply">
<path d="M88.3668 36.1355C82.9465 32.6437 79.5311 26.3843 79.9998 19.5107C80.3323 14.642 82.5412 10.1945 86.2192 6.98819C89.8973 3.78193 94.6045 2.20091 99.4733 2.53521C104.342 2.8695 108.791 5.08004 111.998 8.75924C115.206 12.4385 116.789 17.1461 116.456 22.0148C115.77 32.0653 107.035 39.6813 96.9829 38.9903C93.8058 38.7714 90.8707 37.7499 88.3648 36.1355L88.3668 36.1355ZM107.514 6.29992C105.107 4.74939 102.335 3.82381 99.3998 3.62216C94.8205 3.30793 90.3943 4.79474 86.9368 7.81051C83.4782 10.8253 81.4013 15.0074 81.0878 19.5856C80.6462 26.0491 83.8585 31.9353 88.9544 35.2194C91.311 36.7375 94.0701 37.6989 97.0584 37.9033C106.51 38.5527 114.724 31.3906 115.37 21.9398C115.684 17.3617 114.194 12.934 111.177 9.47545C110.095 8.23323 108.861 7.16811 107.513 6.30093L107.514 6.29992Z" fill="#EFF779"/>
</g>
<g style="mix-blend-mode:multiply">
<path d="M100.378 26.2251C100.452 25.8347 100.461 25.4813 100.408 25.1638C100.354 24.8464 100.224 24.5425 100.021 24.2541C99.8156 23.9657 99.5348 23.682 99.18 23.403C98.8233 23.124 98.3795 22.8332 97.8457 22.5315C96.9307 22.0028 96.1095 21.4749 95.381 20.9488C94.6516 20.4217 94.0495 19.8583 93.5729 19.2584C93.0964 18.6585 92.7625 18.0001 92.5712 17.2813C92.38 16.5624 92.371 15.7477 92.5424 14.839C92.6919 14.0503 92.966 13.3574 93.3685 12.7602C93.7711 12.163 94.2777 11.673 94.8884 11.2881C95.4992 10.9033 96.1953 10.629 96.9768 10.4632C97.7574 10.2985 98.607 10.2594 99.5226 10.3452L100.084 7.36562L102.482 7.81823L101.913 10.8404C102.751 11.1144 103.488 11.4883 104.123 11.9642C104.758 12.4392 105.268 12.9978 105.656 13.6382C106.041 14.2786 106.297 14.997 106.421 15.7943C106.545 16.5917 106.519 17.4546 106.344 18.383L102.012 17.5639C102.221 16.4502 102.132 15.5702 101.741 14.925C101.35 14.2797 100.74 13.8782 99.9114 13.7214C99.4615 13.6369 99.0626 13.6263 98.7139 13.6904C98.3651 13.7546 98.066 13.8758 97.8146 14.0542C97.5632 14.2326 97.3603 14.4612 97.2039 14.74C97.0476 15.0188 96.9383 15.3291 96.8732 15.672C96.8091 16.0158 96.7998 16.3366 96.8471 16.6325C96.8944 16.9304 97.0185 17.2206 97.2194 17.5032C97.4194 17.7867 97.7022 18.0703 98.0679 18.356C98.4336 18.6417 98.8947 18.9529 99.4529 19.2875C100.354 19.8323 101.166 20.3704 101.889 20.9005C102.611 21.4307 103.212 21.9982 103.687 22.603C104.163 23.2078 104.497 23.8682 104.687 24.588C104.878 25.3069 104.888 26.1167 104.718 27.0164C104.564 27.8339 104.283 28.5398 103.876 29.1361C103.468 29.7324 102.96 30.2175 102.351 30.5924C101.742 30.9674 101.044 31.2299 100.255 31.3791C99.4665 31.5282 98.6147 31.5594 97.6991 31.4737L97.1771 34.2441L94.7939 33.7941L95.3132 31.0366C94.4987 30.7966 93.7322 30.4638 93.0091 30.0392C92.2869 29.6136 91.6758 29.0838 91.1746 28.4451C90.6745 27.8072 90.3187 27.0546 90.1092 26.1892C89.8998 25.3238 89.8996 24.3322 90.1106 23.2184L94.4431 24.0375C94.3192 24.6964 94.3077 25.264 94.4094 25.7392C94.5112 26.2144 94.6921 26.6148 94.9521 26.9385C95.2122 27.2621 95.5288 27.5144 95.904 27.6953C96.2782 27.8772 96.6708 28.0054 97.0811 28.0829C97.5508 28.1709 97.9745 28.1899 98.3521 28.1359C98.7297 28.0819 99.0587 27.9718 99.3379 27.8027C99.6182 27.6345 99.845 27.4153 100.021 27.1459C100.197 26.8755 100.317 26.5699 100.381 26.226L100.378 26.2251Z" fill="#EFF779"/>
</g>
</g>
<g style="mix-blend-mode:multiply">
<path d="M191.774 110.432C202.647 112.546 213.176 105.449 215.289 94.5789C217.403 83.7093 210.301 73.1838 199.427 71.0695C188.553 68.9553 178.025 76.0529 175.912 86.9225C173.798 97.7921 180.9 108.318 191.774 110.432Z" fill="#EFF779"/>
<path d="M190.236 111.27C201.11 113.384 211.638 106.286 213.752 95.4166C215.865 84.547 208.764 74.0215 197.89 71.9072C187.016 69.793 176.488 76.8906 174.375 87.7602C172.261 98.6299 179.363 109.155 190.236 111.27Z" fill="#F5FAAF"/>
<g style="mix-blend-mode:multiply">
<path d="M194.183 110.065C187.735 110.053 181.481 106.629 178.163 100.591C175.814 96.3134 175.272 91.3772 176.636 86.6925C178 82.0077 181.108 78.1351 185.387 75.7873C189.665 73.4395 194.603 72.8978 199.29 74.2623C203.976 75.6268 207.851 78.7343 210.2 83.0116C215.05 91.8414 211.81 102.969 202.977 107.815C200.184 109.346 197.162 110.072 194.182 110.066L194.183 110.065ZM194.187 74.6142C191.324 74.6088 188.491 75.3267 185.912 76.7419C181.888 78.9502 178.965 82.5918 177.684 86.9971C176.401 91.4022 176.911 96.0437 179.12 100.066C182.238 105.745 188.121 108.964 194.183 108.977C196.986 108.982 199.828 108.301 202.453 106.859C210.759 102.302 213.805 91.8381 209.245 83.535C207.037 79.5124 203.392 76.5902 198.985 75.3085C197.404 74.8475 195.79 74.6175 194.187 74.6155L194.187 74.6142Z" fill="#EFF779"/>
</g>
<g style="mix-blend-mode:multiply">
<path d="M198.941 95.2377C198.792 94.8693 198.609 94.5666 198.393 94.3284C198.176 94.0902 197.902 93.9049 197.576 93.7717C197.247 93.6397 196.858 93.5526 196.409 93.5093C195.958 93.4671 195.427 93.462 194.815 93.4964C193.759 93.5455 192.783 93.5446 191.886 93.4952C190.987 93.4455 190.176 93.2963 189.451 93.0488C188.726 92.8013 188.09 92.4274 187.541 91.9257C186.991 91.4239 186.544 90.743 186.197 89.8857C185.897 89.1411 185.754 88.4099 185.77 87.6899C185.787 86.9699 185.948 86.2839 186.255 85.6302C186.561 84.9765 186.999 84.3697 187.567 83.8081C188.135 83.248 188.829 82.7563 189.646 82.3341L188.509 79.523L190.772 78.609L191.925 81.4601C192.778 81.2382 193.6 81.1551 194.392 81.2124C195.183 81.2695 195.914 81.4642 196.586 81.7938C197.256 82.1246 197.859 82.5913 198.394 83.1954C198.929 83.7995 199.374 84.5395 199.728 85.4154L195.639 87.0656C195.214 86.0153 194.663 85.3229 193.986 84.9909C193.308 84.6588 192.578 84.6504 191.796 84.9658C191.372 85.1376 191.03 85.344 190.771 85.5863C190.513 85.8287 190.326 86.0923 190.211 86.3782C190.096 86.664 190.048 86.966 190.067 87.2851C190.086 87.6042 190.162 87.9244 190.292 88.2481C190.424 88.5721 190.589 88.8472 190.789 89.0707C190.99 89.2958 191.251 89.4731 191.573 89.6024C191.894 89.7331 192.285 89.8191 192.747 89.862C193.209 89.905 193.765 89.9179 194.416 89.8981C195.469 89.8698 196.443 89.8844 197.337 89.9404C198.232 89.9964 199.043 90.1499 199.77 90.4021C200.497 90.6543 201.135 91.0297 201.684 91.5329C202.233 92.0346 202.678 92.7109 203.021 93.5603C203.333 94.3313 203.478 95.077 203.457 95.799C203.436 96.5209 203.27 97.2034 202.96 97.8478C202.65 98.4922 202.204 99.0903 201.621 99.6418C201.037 100.193 200.337 100.68 199.52 101.102L200.577 103.715L198.328 104.624L197.276 102.022C196.461 102.26 195.636 102.394 194.798 102.427C193.961 102.459 193.16 102.343 192.394 102.076C191.628 101.809 190.922 101.368 190.279 100.753C189.635 100.137 189.099 99.3029 188.676 98.2515L192.764 96.6013C193.016 97.2228 193.313 97.7068 193.655 98.0518C193.997 98.3968 194.366 98.6361 194.759 98.7681C195.153 98.9 195.556 98.9414 195.969 98.891C196.382 98.8421 196.782 98.738 197.169 98.5816C197.612 98.4021 197.979 98.1892 198.268 97.9399C198.556 97.6906 198.774 97.4203 198.917 97.1271C199.063 96.8342 199.135 96.5272 199.138 96.2053C199.139 95.883 199.076 95.5609 198.944 95.2369L198.941 95.2377Z" fill="#EFF779"/>
</g>
</g>
<path opacity="0.2" d="M114.689 68.5275L140.919 132.718C142.45 136.463 140.637 140.778 136.891 142.309L70.8811 169.271C70.309 169.505 69.7215 169.663 69.1338 169.747C67.8744 169.931 66.6089 169.786 65.4479 169.36C64.6185 169.055 63.8444 168.607 63.1645 168.032C63.1283 168.001 63.0925 167.971 63.0561 167.939C62.3362 167.306 61.7295 166.529 61.2873 165.627C61.2109 165.473 61.1398 165.317 61.0746 165.155L35.0749 101.527C33.6028 97.9255 34.1048 93.8368 36.3482 90.6569C36.3482 90.6569 36.3507 90.655 36.354 90.65C38.2209 87.9992 38.7402 84.4802 37.4231 81.2549C37.0325 80.299 36.5088 79.4381 35.881 78.6833L98.283 53.1943C98.3635 54.1724 98.5926 55.1535 98.9831 56.1093C100.246 59.2004 102.903 61.3043 105.932 61.9879C105.932 61.9879 105.932 61.9879 105.935 61.9874C106.138 62.0322 106.341 62.0726 106.545 62.1043C110.195 62.6907 113.289 65.1052 114.688 68.5261L114.689 68.5275Z" fill="#A3A3EB"/>
<path d="M99.5134 52.1686L100.704 55.0794C100.821 55.3674 100.682 55.6968 100.397 55.8136L36.2085 82.0328C35.9204 82.1502 35.591 82.0113 35.4738 81.7247L34.2837 78.8139C34.1665 78.5272 34.3052 78.1965 34.592 78.0794L98.779 51.8619C99.0657 51.7447 99.3954 51.885 99.5123 52.1702L99.5134 52.1686Z" fill="#6665DD"/>
</svg>
