<svg width="20" height="20" viewBox="0 0 20 20" fill="none" xmlns="http://www.w3.org/2000/svg">
<path d="M10.0004 3.05371C10.3464 3.05376 10.6868 3.14274 10.9884 3.3125C11.2898 3.48224 11.5421 3.72718 11.7216 4.02295L11.724 4.0262L17.6054 13.8455L17.6111 13.8545C17.7868 14.1589 17.8794 14.504 17.8805 14.8555C17.8814 15.2071 17.7909 15.5534 17.6168 15.8589C17.4427 16.1643 17.1914 16.4187 16.8884 16.597C16.5854 16.7753 16.2407 16.8714 15.8891 16.8753H4.11092C3.75951 16.8714 3.41529 16.7752 3.11239 16.597C2.80943 16.4187 2.55816 16.1642 2.38403 15.8589C2.2099 15.5534 2.11856 15.2071 2.11955 14.8555C2.12056 14.5039 2.21395 14.1589 2.38973 13.8545L2.39461 13.8455L8.27677 4.0262L8.2784 4.02295C8.4579 3.72711 8.71092 3.48227 9.01245 3.3125C9.31397 3.14282 9.65442 3.05371 10.0004 3.05371ZM10.0004 4.30371C9.86912 4.30371 9.73965 4.33777 9.62524 4.40218C9.51092 4.46659 9.41498 4.55936 9.34692 4.67155L3.47127 14.4787C3.40464 14.5941 3.36999 14.7255 3.36955 14.8587C3.36917 14.9921 3.4036 15.1237 3.46964 15.2396C3.5357 15.3555 3.63138 15.4519 3.74634 15.5195C3.86117 15.5871 3.99155 15.6238 4.12476 15.6253H15.8752C16.0086 15.6238 16.1395 15.5872 16.2545 15.5195C16.3693 15.4519 16.4644 15.3553 16.5304 15.2396C16.5964 15.1237 16.6308 14.9921 16.6305 14.8587C16.63 14.7255 16.5945 14.5949 16.5279 14.4795V14.4787L10.6531 4.67155L10.5969 4.59098C10.5359 4.51456 10.4605 4.45046 10.3748 4.40218C10.2604 4.33782 10.1316 4.30376 10.0004 4.30371ZM10.0069 12.7087C10.3521 12.7087 10.6319 12.9885 10.6319 13.3337C10.6318 13.6787 10.352 13.9587 10.0069 13.9587H10.0004C9.6553 13.9587 9.37552 13.6787 9.37541 13.3337C9.37541 12.9885 9.65523 12.7087 10.0004 12.7087H10.0069ZM9.37541 10.8337V8.33366C9.37541 7.98848 9.65523 7.70866 10.0004 7.70866C10.3454 7.70888 10.6254 7.98862 10.6254 8.33366V10.8337C10.6253 11.1786 10.3453 11.4584 10.0004 11.4587C9.6553 11.4587 9.37552 11.1787 9.37541 10.8337Z" fill="#050517"/>
</svg>
