<svg width="24" height="24" viewBox="0 0 24 24" fill="none" xmlns="http://www.w3.org/2000/svg">
<path fill-rule="evenodd" clip-rule="evenodd" d="M3.51681 16.9997L10.5751 5.21635C10.7237 4.97144 10.9329 4.76895 11.1825 4.62842C11.4321 4.48789 11.7137 4.41406 12.0001 4.41406C12.2866 4.41406 12.5682 4.48789 12.8178 4.62842C13.0674 4.76895 13.2766 4.97144 13.4251 5.21635L20.4835 16.9997C20.629 17.2517 20.706 17.5374 20.7068 17.8284C20.7076 18.1195 20.6322 18.4056 20.4881 18.6585C20.344 18.9113 20.1362 19.122 19.8854 19.2696C19.6346 19.4171 19.3495 19.4965 19.0585 19.4997H4.94181C4.65081 19.4965 4.36571 19.4171 4.1149 19.2696C3.86408 19.122 3.65627 18.9113 3.51216 18.6585C3.36805 18.4056 3.29265 18.1195 3.29346 17.8284C3.29428 17.5374 3.37128 17.2517 3.51681 16.9997ZM12 8.99976C12.5523 8.99976 13 9.44747 13 9.99976V12.9998C13 13.552 12.5523 13.9998 12 13.9998C11.4477 13.9998 11 13.552 11 12.9998V9.99976C11 9.44747 11.4477 8.99976 12 8.99976ZM11 15.9998C11 15.4475 11.4477 14.9998 12 14.9998H12.0083C12.5606 14.9998 13.0083 15.4475 13.0083 15.9998C13.0083 16.552 12.5606 16.9998 12.0083 16.9998H12C11.4477 16.9998 11 16.552 11 15.9998Z" fill="#DD6565"/>
</svg>
