<svg width="20" height="20" viewBox="0 0 20 20" fill="none" xmlns="http://www.w3.org/2000/svg">
<path d="M17.8332 10.0005C17.8332 5.67431 14.3263 2.16708 10.0002 2.16699C5.67395 2.16699 2.16669 5.67426 2.16669 10.0005C2.16677 14.3266 5.67401 17.8335 10.0002 17.8335C14.3263 17.8334 17.8331 14.3266 17.8332 10.0005ZM13.3332 9.50049L13.3845 9.50293C13.6366 9.52853 13.8332 9.7416 13.8332 10.0005C13.8331 10.2593 13.6365 10.472 13.3845 10.4976L13.3332 10.5005H6.66669C6.3906 10.5005 6.16677 10.2766 6.16669 10.0005C6.16669 9.72435 6.39054 9.50049 6.66669 9.50049H13.3332ZM18.8332 10.0005C18.8331 14.8789 14.8786 18.8334 10.0002 18.8335C5.12172 18.8335 1.16677 14.8789 1.16669 10.0005C1.16669 5.12197 5.12167 1.16699 10.0002 1.16699C14.8786 1.16708 18.8332 5.12203 18.8332 10.0005Z" fill="#050517"/>
</svg>
