<svg width="16" height="16" viewBox="0 0 16 16" fill="none" xmlns="http://www.w3.org/2000/svg">
<path d="M12.1666 7.73307C12.1664 7.42275 11.9105 7.16681 11.6002 7.16667H4.39966C4.08934 7.16681 3.8334 7.42275 3.83325 7.73307V12.3997C3.83325 13.0036 4.32965 13.5 4.93351 13.5H11.0663C11.6702 13.5 12.1666 13.0036 12.1666 12.3997V7.73307ZM8.16659 9.33333C8.16659 9.24129 8.09197 9.16667 7.99992 9.16667C7.90787 9.16667 7.83325 9.24129 7.83325 9.33333C7.83325 9.42538 7.90787 9.5 7.99992 9.5C8.09197 9.5 8.16659 9.42538 8.16659 9.33333ZM9.16659 9.33333C9.16659 9.79848 8.89373 10.1987 8.49992 10.3861V12C8.49992 12.2761 8.27606 12.5 7.99992 12.5C7.72378 12.5 7.49992 12.2761 7.49992 12V10.3861C7.10611 10.1987 6.83325 9.79848 6.83325 9.33333C6.83325 8.689 7.35559 8.16667 7.99992 8.16667C8.64425 8.16667 9.16659 8.689 9.16659 9.33333ZM10.1666 4.66667C10.1666 3.46948 9.19711 2.5 7.99992 2.5C6.80273 2.5 5.83325 3.46948 5.83325 4.66667V6.16667H10.1666V4.66667ZM11.1666 6.16667H11.6002C12.4628 6.16681 13.1664 6.87047 13.1666 7.73307V12.3997C13.1666 13.5559 12.2225 14.5 11.0663 14.5H4.93351C3.77737 14.5 2.83325 13.5559 2.83325 12.3997V7.73307C2.83339 6.87047 3.53705 6.16681 4.39966 6.16667H4.83325V4.66667C4.83325 2.91719 6.25044 1.5 7.99992 1.5C9.74939 1.5 11.1666 2.91719 11.1666 4.66667V6.16667Z" fill="#050517"/>
</svg>
