<svg width="16" height="16" viewBox="0 0 16 16" fill="none" xmlns="http://www.w3.org/2000/svg">
<path d="M12.1668 7.73307C12.1667 7.42275 11.9107 7.16681 11.6004 7.16667H4.3999C4.08958 7.16681 3.83364 7.42275 3.8335 7.73307V12.3997C3.8335 13.0036 4.3299 13.5 4.93376 13.5H11.0666C11.6704 13.5 12.1668 13.0036 12.1668 12.3997V7.73307ZM8.16683 9.33333C8.16683 9.24129 8.09221 9.16667 8.00016 9.16667C7.90812 9.16667 7.8335 9.24129 7.8335 9.33333C7.8335 9.42538 7.90812 9.5 8.00016 9.5C8.09221 9.5 8.16683 9.42538 8.16683 9.33333ZM9.16683 9.33333C9.16683 9.79848 8.89397 10.1987 8.50016 10.3861V12C8.50016 12.2761 8.27631 12.5 8.00016 12.5C7.72402 12.5 7.50016 12.2761 7.50016 12V10.3861C7.10635 10.1987 6.8335 9.79848 6.8335 9.33333C6.8335 8.689 7.35583 8.16667 8.00016 8.16667C8.6445 8.16667 9.16683 8.689 9.16683 9.33333ZM13.1668 12.3997C13.1668 13.5559 12.2227 14.5 11.0666 14.5H4.93376C3.77761 14.5 2.8335 13.5559 2.8335 12.3997V7.73307C2.83364 6.87047 3.5373 6.16681 4.3999 6.16667H4.8335V4.66667C4.8335 2.91719 6.25069 1.5 8.00016 1.5C9.43078 1.5 10.638 2.44736 11.0314 3.7487L11.0672 3.87565L11.0776 3.92578C11.1155 4.17628 10.9579 4.41992 10.7072 4.48438C10.4565 4.54871 10.2016 4.41098 10.1141 4.17318L10.0985 4.12435L10.0464 3.95247C9.75144 3.1064 8.94664 2.5 8.00016 2.5C6.80297 2.5 5.8335 3.46948 5.8335 4.66667V6.16667H11.6004C12.463 6.16681 13.1667 6.87047 13.1668 7.73307V12.3997Z" fill="#050517"/>
</svg>
