<svg width="24" height="24" viewBox="0 0 24 24" fill="none" xmlns="http://www.w3.org/2000/svg">
<path d="M9.25 8.59962C9.24979 8.13049 8.86952 7.75023 8.40039 7.75002H5.59961C5.13048 7.75023 4.75021 8.13049 4.75 8.59962V15.9004C4.75021 16.3695 5.13048 16.7498 5.59961 16.75H8.40039C8.86952 16.7498 9.24979 16.3695 9.25 15.9004V8.59962ZM16.25 15.5V13.25H14C13.5858 13.25 13.25 12.9142 13.25 12.5C13.25 12.0858 13.5858 11.75 14 11.75H16.25V9.50002C16.25 9.0858 16.5858 8.75002 17 8.75002C17.4142 8.75002 17.75 9.0858 17.75 9.50002V11.75H20L20.0771 11.7539C20.4551 11.7925 20.75 12.1118 20.75 12.5C20.75 12.8882 20.4551 13.2075 20.0771 13.2461L20 13.25H17.75V15.5C17.75 15.9142 17.4142 16.25 17 16.25C16.5858 16.25 16.25 15.9142 16.25 15.5ZM10.75 15.9004C10.7498 17.198 9.69795 18.2498 8.40039 18.25H5.59961C4.30205 18.2498 3.25021 17.198 3.25 15.9004V8.59962C3.25021 7.30207 4.30205 6.25023 5.59961 6.25002H8.40039C9.69795 6.25023 10.7498 7.30207 10.75 8.59962V15.9004Z" fill="#050517"/>
</svg>
