<svg width="20" height="20" viewBox="0 0 20 20" fill="none" xmlns="http://www.w3.org/2000/svg">
<path d="M13.1409 5.97943C13.3864 5.7792 13.7486 5.79373 13.9775 6.02256C14.2063 6.25139 14.2208 6.61367 14.0206 6.85915L13.9775 6.90635L10.8834 9.99961L13.9775 13.0937L14.0206 13.1409C14.2208 13.3864 14.2063 13.7487 13.9775 13.9775C13.7487 14.2063 13.3864 14.2208 13.1409 14.0206L13.0937 13.9775L9.99961 10.8834L6.90635 13.9775C6.66228 14.2215 6.26663 14.2215 6.02256 13.9775C5.77849 13.7334 5.77851 13.3378 6.02256 13.0937L9.11582 9.99961L6.02256 6.90635L5.97943 6.85915C5.77917 6.61366 5.79372 6.25139 6.02256 6.02256C6.25139 5.79372 6.61366 5.77917 6.85915 5.97943L6.90635 6.02256L9.99961 9.11582L13.0937 6.02256L13.1409 5.97943Z" fill="#050517"/>
</svg>
