<svg width="16" height="16" viewBox="0 0 16 16" fill="none" xmlns="http://www.w3.org/2000/svg">
<path fill-rule="evenodd" clip-rule="evenodd" d="M2.7859 12.3699H12.1864C12.9644 12.3733 13.7159 12.0872 14.2945 11.5672C14.8732 11.0472 15.2378 10.3305 15.3173 9.55657C15.3967 8.78264 15.1855 8.00681 14.7245 7.38003C14.2636 6.75326 13.586 6.32037 12.8236 6.16559C12.6138 6.12328 12.4004 6.10229 12.1864 6.10292C12.0114 6.10568 11.8368 6.12138 11.6642 6.14992C11.2489 5.40198 10.614 4.79956 9.84538 4.42404C9.07672 4.04853 8.2113 3.918 7.36609 4.05014C6.52087 4.18228 5.73658 4.5707 5.11921 5.16291C4.50184 5.75511 4.08114 6.52256 3.91396 7.36155C3.85927 7.63498 3.83128 7.91308 3.8304 8.19192V8.48961C3.55326 8.3234 3.24134 8.22376 2.91918 8.19852C2.59701 8.17328 2.27338 8.22311 1.97374 8.34413C1.6741 8.46514 1.4066 8.65403 1.19232 8.89591C0.978036 9.1378 0.822793 9.4261 0.738793 9.73815C0.654793 10.0502 0.644346 10.3775 0.708248 10.6943C0.772151 11.011 0.908674 11.3087 1.10708 11.5637C1.30549 11.8188 1.56037 12.0244 1.85168 12.1643C2.14298 12.3042 2.46277 12.3746 2.7859 12.3699Z" fill="#DD6565"/>
</svg>
