<svg width="16" height="16" viewBox="0 0 16 16" fill="none" xmlns="http://www.w3.org/2000/svg">
<path d="M7.4662 3.53187C8.35556 3.42754 9.25766 3.58044 10.0645 3.97458C10.8227 4.34497 11.4645 4.91278 11.9245 5.6152C12.0089 5.60856 12.0937 5.60417 12.1784 5.60283H12.1849L12.3705 5.60674C12.5557 5.61557 12.74 5.63906 12.9219 5.67575H12.9226L13.0873 5.71286C13.9041 5.91855 14.6259 6.40258 15.127 7.08395C15.628 7.76531 15.8746 8.59848 15.8275 9.43942L15.8145 9.60739C15.7281 10.4488 15.3511 11.2321 14.7514 11.8235L14.6283 11.9388C13.9579 12.5412 13.0876 12.8725 12.1862 12.8691V12.8698H2.78586V12.8691C2.43786 12.8732 2.09322 12.8076 1.77218 12.6757L1.63482 12.6152C1.31886 12.4635 1.03749 12.2493 0.807341 11.9863L0.712289 11.8704C0.466434 11.5543 0.297339 11.1855 0.218149 10.7929C0.138976 10.4004 0.151808 9.99476 0.255909 9.60804C0.360016 9.2214 0.552248 8.86415 0.817758 8.56442C1.08333 8.26464 1.41515 8.03015 1.78651 7.88018L1.92713 7.82809C2.25797 7.71634 2.60858 7.67251 2.95773 7.69984L3.10682 7.71611C3.18907 7.72737 3.27041 7.7433 3.35096 7.76234C3.36646 7.59506 3.39025 7.42856 3.42323 7.26364L3.46164 7.08851C3.67017 6.21767 4.12481 5.42366 4.77284 4.80205L4.90435 4.68031C5.57385 4.0856 6.40124 3.69468 7.28846 3.55596L7.4662 3.53187ZM9.6257 4.87302C8.99134 4.56311 8.28197 4.4427 7.58273 4.52471L7.44276 4.54424C6.74519 4.65335 6.09478 4.96072 5.56841 5.42835L5.46489 5.52341C4.92149 6.04466 4.55156 6.72049 4.40435 7.45895L4.4037 7.4596C4.35538 7.70119 4.33092 7.94696 4.33013 8.19333V8.48955C4.33013 8.66967 4.23295 8.83569 4.07622 8.92445C3.91955 9.01311 3.72737 9.01114 3.57297 8.91859C3.38854 8.80798 3.18383 8.7361 2.9714 8.707L2.87961 8.69723C2.66516 8.68046 2.44995 8.70731 2.24679 8.77601L2.16086 8.80791C1.93303 8.89992 1.72942 9.04329 1.56646 9.22718C1.40352 9.4111 1.28532 9.63055 1.2214 9.86781C1.15751 10.1052 1.14936 10.3547 1.19797 10.5957C1.24658 10.8364 1.35057 11.0626 1.50135 11.2565L1.55995 11.3274C1.70121 11.4889 1.87384 11.6204 2.06776 11.7135L2.15174 11.7506C2.35018 11.8322 2.56353 11.8728 2.7787 11.8698H12.1882L12.3106 11.8678C12.9205 11.8422 13.5044 11.605 13.9603 11.1953L14.0489 11.1113C14.4836 10.6826 14.7571 10.115 14.8197 9.50518L14.8295 9.38343C14.8636 8.77404 14.6847 8.17017 14.3217 7.6764C13.9343 7.14969 13.3647 6.78568 12.724 6.65557V6.65492C12.5488 6.6196 12.3703 6.60256 12.1915 6.60283C12.042 6.60531 11.893 6.61883 11.7455 6.6432C11.5631 6.67334 11.3815 6.60011 11.2702 6.45765L11.2266 6.39255C10.861 5.73417 10.3023 5.20358 9.6257 4.87302Z" fill="#050517"/>
</svg>
