<svg width="17" height="16" viewBox="0 0 17 16" fill="none" xmlns="http://www.w3.org/2000/svg">
<path d="M14.6668 7.99998C14.6668 4.59422 11.9059 1.83331 8.50016 1.83331C5.09441 1.83331 2.3335 4.59422 2.3335 7.99998C2.3335 11.4057 5.09441 14.1666 8.50016 14.1666C11.9059 14.1666 14.6668 11.4057 14.6668 7.99998ZM10.0002 6.53318C10.0001 6.51488 9.98526 6.50005 9.96696 6.49998H7.03337C7.01506 6.50005 7.00023 6.51488 7.00016 6.53318V9.46678C7.00023 9.48508 7.01506 9.49991 7.03337 9.49998H9.96696C9.98526 9.49991 10.0001 9.48508 10.0002 9.46678V6.53318ZM15.6668 7.99998C15.6668 11.958 12.4582 15.1666 8.50016 15.1666C4.54212 15.1666 1.3335 11.958 1.3335 7.99998C1.3335 4.04194 4.54212 0.833313 8.50016 0.833313C12.4582 0.833313 15.6668 4.04194 15.6668 7.99998ZM11.0002 9.46678C11.0001 10.0374 10.5375 10.4999 9.96696 10.5H7.03337C6.46277 10.4999 6.00023 10.0374 6.00016 9.46678V6.53318C6.00023 5.96259 6.46277 5.50005 7.03337 5.49998H9.96696C10.5375 5.50005 11.0001 5.96259 11.0002 6.53318V9.46678Z" fill="#050517"/>
</svg>
