<svg width="20" height="20" viewBox="0 0 20 20" fill="none" xmlns="http://www.w3.org/2000/svg">
<path d="M0.0416478 17.0003V13.9583C0.0416478 13.8663 0.0401482 13.7343 0.0619929 13.5978C0.0864913 13.4449 0.135351 13.3071 0.207663 13.1624H0.208477C0.4331 12.6642 0.838299 12.253 1.33966 11.91C1.85404 11.5581 2.50561 11.2518 3.26349 10.979L3.32453 10.9603C3.63187 10.8836 3.95299 11.0506 4.06264 11.355C4.17956 11.6798 4.01144 12.038 3.68667 12.1549L3.19025 12.3462C2.72314 12.5395 2.3422 12.7387 2.04523 12.9419C1.64709 13.2144 1.43569 13.4693 1.34048 13.6898C1.33588 13.7004 1.331 13.7112 1.32583 13.7215C1.29858 13.776 1.29705 13.7922 1.29653 13.7956C1.29553 13.8019 1.29343 13.8148 1.29246 13.8411C1.29141 13.87 1.29165 13.9036 1.29165 13.9583V17.0003C1.29182 17.3882 1.61175 17.7082 1.99966 17.7083H15.9832C16.3713 17.7083 16.6919 17.3883 16.692 17.0003V13.9583C16.692 13.9066 16.6916 13.8651 16.6904 13.8265C16.6897 13.8023 16.6868 13.7835 16.6855 13.7687C16.6692 13.7423 16.6538 13.7152 16.6416 13.6865C16.5505 13.4724 16.3403 13.2161 15.9401 12.9411C15.5434 12.6685 14.9971 12.4029 14.2995 12.1558L14.5086 11.5666L14.7169 10.9774C15.4776 11.2469 16.1322 11.5563 16.6481 11.9108C17.1305 12.2423 17.5233 12.6388 17.7492 13.1103C17.873 13.286 17.9093 13.4751 17.9233 13.5783C17.9426 13.72 17.942 13.8688 17.942 13.9583V17.0003C17.9419 18.0498 17.1081 18.908 16.0695 18.9534C16.0675 18.9537 16.0657 18.9549 16.0638 18.9551L16.0003 18.9583H1.99966C0.921401 18.9582 0.0418224 18.0786 0.0416478 17.0003ZM13.9194 11.3582C14.0347 11.0329 14.3916 10.8622 14.7169 10.9774L14.2995 12.1558C13.9742 12.0405 13.8043 11.6835 13.9194 11.3582ZM12.5416 5.83333C12.5416 3.88684 10.9465 2.29166 8.99998 2.29166C7.05349 2.29166 5.45831 3.88684 5.45831 5.83333V7.08333C5.45831 9.02982 7.05349 10.625 8.99998 10.625C10.9465 10.625 12.5416 9.02982 12.5416 7.08333V5.83333ZM13.7916 7.08333C13.7916 9.72017 11.6368 11.875 8.99998 11.875C6.36314 11.875 4.20831 9.72017 4.20831 7.08333V5.83333C4.20831 3.19649 6.36314 1.04166 8.99998 1.04166C11.6368 1.04166 13.7916 3.19649 13.7916 5.83333V7.08333Z" fill="#F3F3F3"/>
<path d="M16.5168 8.92503C16.6166 8.64359 16.9257 8.4959 17.2074 8.59554L16.8459 9.61498C16.5643 9.51524 16.4171 9.20643 16.5168 8.92503Z" fill="#F3F3F3"/>
<path d="M18.9176 13.8061C18.9174 14.1418 18.6398 14.4186 18.3038 14.4186L18.3186 15.5L18.3736 15.4972C18.3753 15.497 18.3769 15.496 18.3785 15.4958C19.2779 15.4565 19.9998 14.714 20 13.8061V11.1744V11.1678C20 11.0898 20 10.9648 19.9838 10.8456C19.9716 10.7564 19.9402 10.5928 19.833 10.4408C19.6374 10.0328 19.2972 9.68988 18.8795 9.40307C18.4329 9.09639 17.866 8.82869 17.2074 8.59554L17.027 9.10526L16.8459 9.61498C17.45 9.82882 17.923 10.0586 18.2665 10.2944C18.613 10.5323 18.7951 10.754 18.8739 10.9393C18.8845 10.9641 18.8979 10.9875 18.912 11.0104C18.9131 11.0232 18.9155 11.0394 18.9162 11.0604C18.9172 11.0937 18.9176 11.1297 18.9176 11.1744V13.8061Z" fill="#F3F3F3"/>
<path d="M15.3238 4.14535C15.3238 2.46141 13.9425 1.0814 12.257 1.0814C11.25 1.0814 11.25 0 12.257 0C14.5403 0 16.4061 1.86417 16.4061 4.14535V5.22674C16.4061 7.50792 14.5403 9.37209 12.257 9.37209L12.5 8.25C14 8.25 15.3238 6.91068 15.3238 5.22674V4.14535Z" fill="#F3F3F3"/>
</svg>
