<svg width="25" height="24" viewBox="0 0 25 24" fill="none" xmlns="http://www.w3.org/2000/svg">
<path d="M1.75 20.4004V16.75C1.75 16.6396 1.7482 16.4812 1.77441 16.3174C1.80381 16.1339 1.86244 15.9685 1.94921 15.7949H1.95019C2.21974 15.197 2.70598 14.7036 3.30761 14.292C3.92487 13.8697 4.70675 13.5022 5.61621 13.1748L5.68945 13.1523C6.05826 13.0604 6.4436 13.2607 6.57519 13.626C6.71549 14.0157 6.51375 14.4456 6.12402 14.5859L5.52832 14.8154C4.96778 15.0474 4.51066 15.2864 4.15429 15.5303C3.67652 15.8572 3.42285 16.1631 3.30859 16.4277C3.30308 16.4405 3.29722 16.4534 3.29101 16.4658C3.25831 16.5313 3.25647 16.5507 3.25586 16.5547C3.25465 16.5622 3.25213 16.5777 3.25097 16.6094C3.24972 16.6439 3.25 16.6843 3.25 16.75V20.4004C3.25021 20.8659 3.63412 21.2498 4.09961 21.25H20.8799C21.3455 21.25 21.7303 20.866 21.7305 20.4004V16.75C21.7305 16.6879 21.73 16.6381 21.7285 16.5918C21.7276 16.5628 21.7242 16.5402 21.7227 16.5225C21.7031 16.4907 21.6846 16.4583 21.6699 16.4238C21.5606 16.1669 21.3083 15.8594 20.8281 15.5293C20.3521 15.2022 19.6966 14.8835 18.8594 14.5869L19.1103 13.8799L19.3603 13.1729C20.2732 13.4962 21.0587 13.8676 21.6777 14.293C22.2566 14.6908 22.728 15.1665 22.999 15.7324C23.1476 15.9432 23.1911 16.1701 23.208 16.2939C23.2312 16.464 23.2305 16.6426 23.2305 16.75V20.4004C23.2303 21.6597 22.2298 22.6896 20.9834 22.7441C20.9811 22.7444 20.9789 22.7459 20.9766 22.7461L20.9004 22.75H4.09961C2.8057 22.7498 1.75021 21.6943 1.75 20.4004ZM18.4033 13.6299C18.5416 13.2395 18.97 13.0346 19.3603 13.1729L18.8594 14.5869C18.4691 14.4486 18.2652 14.0202 18.4033 13.6299ZM16.75 7C16.75 4.66421 14.8358 2.75 12.5 2.75C10.1642 2.75 8.25 4.66421 8.25 7V8.5C8.25 10.8358 10.1642 12.75 12.5 12.75C14.8358 12.75 16.75 10.8358 16.75 8.5V7ZM18.25 8.5C18.25 11.6642 15.6642 14.25 12.5 14.25C9.33578 14.25 6.75 11.6642 6.75 8.5V7C6.75 3.83579 9.33578 1.25 12.5 1.25C15.6642 1.25 18.25 3.83579 18.25 7V8.5Z" fill="#050517"/>
</svg>
