<svg width="21" height="20" viewBox="0 0 21 20" fill="none" xmlns="http://www.w3.org/2000/svg">
<path d="M17.8332 10.0003C17.8332 5.74313 14.382 2.29199 10.1248 2.29199C5.86764 2.29199 2.4165 5.74313 2.4165 10.0003C2.4165 14.2575 5.86764 17.7087 10.1248 17.7087C14.382 17.7087 17.8332 14.2575 17.8332 10.0003ZM13.0163 6.2251C13.2603 5.98103 13.656 5.98105 13.9001 6.2251C14.1441 6.46918 14.1441 6.86481 13.9001 7.10889L8.30029 12.7087H10.9582C11.3033 12.7087 11.5832 12.9885 11.5832 13.3337C11.5832 13.6788 11.3033 13.9587 10.9582 13.9587H6.7915C6.44635 13.9586 6.16651 13.6788 6.1665 13.3337V9.16699C6.1665 8.82183 6.44634 8.54201 6.7915 8.54199C7.13668 8.54199 7.4165 8.82181 7.4165 9.16699V11.8249L13.0163 6.2251ZM19.0832 10.0003C19.0832 14.9479 15.0724 18.9587 10.1248 18.9587C5.17729 18.9587 1.1665 14.9479 1.1665 10.0003C1.1665 5.05277 5.17729 1.04199 10.1248 1.04199C15.0724 1.04199 19.0832 5.05277 19.0832 10.0003Z" fill="#050517"/>
</svg>
