<svg width="20" height="20" viewBox="0 0 20 20" fill="none" xmlns="http://www.w3.org/2000/svg">
<path d="M17.7082 10.0003C17.7082 5.74313 14.257 2.29199 9.99984 2.29199C5.74264 2.29199 2.2915 5.74313 2.2915 10.0003C2.2915 14.2575 5.74264 17.7087 9.99984 17.7087C14.257 17.7087 17.7082 14.2575 17.7082 10.0003ZM12.8913 6.2251C13.1353 5.98103 13.531 5.98105 13.7751 6.2251C14.0191 6.46918 14.0191 6.86481 13.7751 7.10889L8.17529 12.7087H10.8332C11.1783 12.7087 11.4582 12.9885 11.4582 13.3337C11.4582 13.6788 11.1783 13.9587 10.8332 13.9587H6.6665C6.32135 13.9586 6.04151 13.6788 6.0415 13.3337V9.16699C6.0415 8.82183 6.32134 8.54201 6.6665 8.54199C7.01168 8.54199 7.2915 8.82181 7.2915 9.16699V11.8249L12.8913 6.2251ZM18.9582 10.0003C18.9582 14.9479 14.9474 18.9587 9.99984 18.9587C5.05229 18.9587 1.0415 14.9479 1.0415 10.0003C1.0415 5.05277 5.05229 1.04199 9.99984 1.04199C14.9474 1.04199 18.9582 5.05277 18.9582 10.0003Z" fill="#55B938"/>
</svg>
