<svg width="40" height="40" viewBox="0 0 40 40" fill="none" xmlns="http://www.w3.org/2000/svg">
<g clip-path="url(#clip0_62_64)">
<path d="M18.75 38.3334V35C18.75 34.3097 19.3097 33.75 20 33.75C20.6904 33.75 21.25 34.3097 21.25 35V38.3334C21.25 39.0237 20.6904 39.5834 20 39.5834C19.3097 39.5834 18.75 39.0237 18.75 38.3334ZM8.50914 29.7233C8.99729 29.2352 9.78856 29.2352 10.2767 29.7233C10.7649 30.2115 10.7649 31.0028 10.2767 31.4909L7.91994 33.8477C7.43177 34.3356 6.64044 34.3358 6.15236 33.8477C5.66429 33.3596 5.66445 32.5683 6.15236 32.0801L8.50914 29.7233ZM29.7233 29.7233C30.1809 29.2658 30.9039 29.2369 31.3949 29.6371L31.4909 29.7233L33.8477 32.0801L33.9339 32.1745C34.3342 32.6655 34.3053 33.3901 33.8477 33.8477C33.3901 34.3053 32.6655 34.3342 32.1745 33.9339L32.0801 33.8477L29.7233 31.4909L29.6371 31.3949C29.2369 30.9039 29.2658 30.1809 29.7233 29.7233ZM28.75 20C28.75 15.1675 24.8325 11.25 20 11.25C15.1675 11.25 11.25 15.1675 11.25 20C11.25 24.8325 15.1675 28.75 20 28.75C24.8325 28.75 28.75 24.8325 28.75 20ZM5.00002 18.75C5.69038 18.75 6.25002 19.3097 6.25002 20C6.25002 20.6904 5.69038 21.25 5.00002 21.25H1.66669C0.976331 21.25 0.416687 20.6904 0.416687 20C0.416687 19.3097 0.976331 18.75 1.66669 18.75H5.00002ZM38.3334 18.75C39.0237 18.75 39.5834 19.3097 39.5834 20C39.5834 20.6904 39.0237 21.25 38.3334 21.25H35C34.3097 21.25 33.75 20.6904 33.75 20C33.75 19.3097 34.3097 18.75 35 18.75H38.3334ZM6.15236 6.15236C6.60996 5.69479 7.33458 5.6658 7.82554 6.0661L7.91994 6.15236L10.2767 8.50914L10.363 8.60516C10.7631 9.09612 10.7342 9.81918 10.2767 10.2767C9.81918 10.7342 9.09612 10.7631 8.60516 10.363L8.50914 10.2767L6.15236 7.91994L6.0661 7.82554C5.6658 7.33458 5.69477 6.60996 6.15236 6.15236ZM32.0801 6.15236C32.5683 5.66445 33.3596 5.66429 33.8477 6.15236C34.3358 6.64044 34.3356 7.43177 33.8477 7.91994L31.4909 10.2767C31.0028 10.7649 30.2115 10.7649 29.7233 10.2767C29.2352 9.78856 29.2352 8.99729 29.7233 8.50914L32.0801 6.15236ZM18.75 5.00002V1.66669C18.75 0.976331 19.3097 0.416687 20 0.416687C20.6904 0.416687 21.25 0.976331 21.25 1.66669V5.00002C21.25 5.69038 20.6904 6.25002 20 6.25002C19.3097 6.25002 18.75 5.69038 18.75 5.00002ZM31.25 20C31.25 26.2132 26.2132 31.25 20 31.25C13.7868 31.25 8.75002 26.2132 8.75002 20C8.75002 13.7868 13.7868 8.75002 20 8.75002C26.2132 8.75002 31.25 13.7868 31.25 20Z" fill="#050517"/>
</g>
<defs>
<clipPath id="clip0_62_64">
<rect width="40" height="40" fill="white"/>
</clipPath>
</defs>
</svg>
