<svg width="17" height="16" viewBox="0 0 17 16" fill="none" xmlns="http://www.w3.org/2000/svg">
<path d="M11.1142 2.80624C11.8343 2.21905 12.8968 2.26137 13.568 2.93254L13.6936 3.07187C14.2416 3.74388 14.2416 4.71365 13.6936 5.38567L13.568 5.52499L6.49634 12.596C6.444 12.6483 6.38117 12.6883 6.31209 12.7131L6.24113 12.7327L3.88436 13.204C3.72043 13.2368 3.55075 13.1855 3.43253 13.0673C3.31444 12.9491 3.2631 12.78 3.29582 12.6161L3.76717 10.2587L3.7867 10.1878C3.81152 10.1187 3.8516 10.0558 3.90389 10.0035L10.9749 2.93254L11.1142 2.80624ZM4.71769 10.6031L4.42277 12.0764L5.89608 11.7815L11.564 6.11418L10.3857 4.9358L4.71769 10.6031ZM12.8603 3.63957C12.5552 3.33466 12.0729 3.31554 11.7457 3.58228L11.6819 3.63957L11.0927 4.22877L12.2711 5.40715L12.8603 4.81796L12.9176 4.75481C13.1669 4.44926 13.1669 4.00827 12.9176 3.70273L12.8603 3.63957Z" fill="#050517"/>
</svg>
