<svg width="24" height="24" viewBox="0 0 24 24" fill="none" xmlns="http://www.w3.org/2000/svg">
<path d="M22.4002 4.60022C22.4002 4.04794 21.9523 3.60003 21.4 3.60002H2.60022C2.04794 3.60002 1.60002 4.04794 1.60002 4.60022V5.40002C1.60002 5.95231 2.04794 6.40022 2.60022 6.40022H21.4C21.9523 6.40022 22.4002 5.95231 22.4002 5.40002V4.60022ZM4.59768 18.5485C4.59916 18.5656 4.60002 18.5828 4.60002 18.6C4.60002 19.5987 5.4014 20.4 6.40002 20.4H17.6002C18.5988 20.3999 19.4002 19.5986 19.4002 18.6C19.4002 18.5828 19.4005 18.5656 19.402 18.5485L20.3459 7.60022H3.65432L4.59768 18.5485ZM14.5756 10.5756C14.8099 10.3414 15.1897 10.3415 15.424 10.5756C15.6584 10.8099 15.6584 11.1897 15.424 11.424L12.8483 13.9998L15.424 16.5756C15.6584 16.8099 15.6584 17.1897 15.424 17.424C15.1897 17.6584 14.8099 17.6584 14.5756 17.424L11.9998 14.8483L9.42405 17.424C9.18973 17.6584 8.80993 17.6584 8.57561 17.424C8.34149 17.1897 8.34136 16.8099 8.57561 16.5756L11.1514 13.9998L8.57561 11.424C8.34149 11.1897 8.34136 10.8099 8.57561 10.5756C8.80986 10.3414 9.18972 10.3415 9.42405 10.5756L11.9998 13.1514L14.5756 10.5756ZM23.6002 5.40002C23.6002 6.56421 22.6957 7.51606 21.5512 7.59377L20.599 18.6352C20.5803 20.2802 19.2498 21.5999 17.6002 21.6H6.40002C4.75039 21.6 3.41934 20.2802 3.40061 18.6352L2.44846 7.59377C1.30417 7.51588 0.400024 6.56408 0.400024 5.40002V4.60022C0.400024 3.38519 1.38519 2.40002 2.60022 2.40002H21.4C22.6151 2.40003 23.6002 3.38519 23.6002 4.60022V5.40002Z" fill="#050517"/>
</svg>
