<svg width="24" height="24" viewBox="0 0 24 24" fill="none" xmlns="http://www.w3.org/2000/svg">
<path fill-rule="evenodd" clip-rule="evenodd" d="M7.91 3.23013L3.23 7.91273V7.90272C3.08 8.05281 3 8.26292 3 8.47304V15.527C3 15.7471 3.08 15.9472 3.23 16.0973L7.9 20.7699C8.05 20.92 8.26 21 8.47 21H15.53C15.75 21 15.95 20.92 16.1 20.7699L20.77 16.0973C20.92 15.9472 21 15.7371 21 15.527V8.47304C21 8.25292 20.92 8.05281 20.77 7.90272L16.1 3.23013C15.95 3.08004 15.74 3 15.53 3H8.48C8.26 3 8.06 3.08004 7.91 3.23013ZM9.70711 8.29289C9.31658 7.90237 8.68342 7.90237 8.29289 8.29289C7.90237 8.68342 7.90237 9.31658 8.29289 9.70711L10.5858 12L8.29289 14.2929C7.90237 14.6834 7.90237 15.3166 8.29289 15.7071C8.68342 16.0976 9.31658 16.0976 9.70711 15.7071L12 13.4142L14.2929 15.7071C14.6834 16.0976 15.3166 16.0976 15.7071 15.7071C16.0976 15.3166 16.0976 14.6834 15.7071 14.2929L13.4142 12L15.7071 9.70711C16.0976 9.31658 16.0976 8.68342 15.7071 8.29289C15.3166 7.90237 14.6834 7.90237 14.2929 8.29289L12 10.5858L9.70711 8.29289Z" fill="#DD6565"/>
</svg>
