<svg width="20" height="20" viewBox="0 0 20 20" fill="none" xmlns="http://www.w3.org/2000/svg">
<path d="M13.3335 12.7087C13.6787 12.7087 13.9585 12.9885 13.9585 13.3337C13.9585 13.6788 13.6787 13.9587 13.3335 13.9587H6.66683C6.32165 13.9587 6.04183 13.6788 6.04183 13.3337C6.04183 12.9885 6.32165 12.7087 6.66683 12.7087H13.3335ZM15.0002 9.37533C15.3453 9.37533 15.6252 9.65515 15.6252 10.0003C15.6252 10.3455 15.3453 10.6253 15.0002 10.6253H5.00016C4.65498 10.6253 4.37516 10.3455 4.37516 10.0003C4.37516 9.65515 4.65498 9.37533 5.00016 9.37533H15.0002ZM16.6668 6.04199C17.012 6.04199 17.2918 6.32181 17.2918 6.66699C17.2918 7.01217 17.012 7.29199 16.6668 7.29199H3.3335C2.98832 7.29199 2.7085 7.01217 2.7085 6.66699C2.7085 6.32181 2.98832 6.04199 3.3335 6.04199H16.6668Z" fill="#F3F3F3"/>
</svg>
