<svg width="20" height="20" viewBox="0 0 20 20" fill="none" xmlns="http://www.w3.org/2000/svg">
<path d="M16.0415 8.1665C16.0414 8.14362 16.0229 8.12509 16 8.125H2.33301C2.31013 8.12509 2.29159 8.14362 2.2915 8.1665V15.1668C2.29159 15.1897 2.31013 15.2082 2.33301 15.2083H16C16.0229 15.2082 16.0414 15.1897 16.0415 15.1668V8.1665ZM9.37484 11.6667C9.37484 11.5516 9.28156 11.4583 9.1665 11.4583C9.05144 11.4583 8.95817 11.5516 8.95817 11.6667C8.95817 11.7817 9.05144 11.875 9.1665 11.875C9.28156 11.875 9.37484 11.7817 9.37484 11.6667ZM10.6248 11.6667C10.6248 12.4721 9.97192 13.125 9.1665 13.125C8.36109 13.125 7.70817 12.4721 7.70817 11.6667C7.70817 10.8613 8.36109 10.2083 9.1665 10.2083C9.97192 10.2083 10.6248 10.8613 10.6248 11.6667ZM17.2915 12.7083H18.5C18.5095 12.7083 18.5191 12.7047 18.5285 12.6953C18.5379 12.6859 18.5415 12.6763 18.5415 12.6668V5.6665C18.5415 5.65704 18.5379 5.64741 18.5285 5.63802C18.5191 5.62863 18.5095 5.62504 18.5 5.625H4.83301C4.82354 5.62504 4.81392 5.62863 4.80452 5.63802C4.79513 5.64741 4.79154 5.65704 4.7915 5.6665V6.875H16C16.7132 6.87509 17.2914 7.45327 17.2915 8.1665V12.7083ZM19.7915 12.6668C19.7914 13.3785 19.2117 13.9582 18.5 13.9583H17.2915V15.1668C17.2914 15.8801 16.7132 16.4582 16 16.4583H2.33301C1.61977 16.4582 1.04159 15.8801 1.0415 15.1668V8.1665C1.04159 7.45327 1.61977 6.87509 2.33301 6.875H3.5415V5.6665C3.54159 4.95479 4.12129 4.37509 4.83301 4.375H18.5C19.2117 4.37509 19.7914 4.95479 19.7915 5.6665V12.6668Z" fill="#050517"/>
</svg>
