<svg width="25" height="24" viewBox="0 0 25 24" fill="none" xmlns="http://www.w3.org/2000/svg">
<path fill-rule="evenodd" clip-rule="evenodd" d="M21.6001 6.55141L21.6304 6.5747C22.1671 6.98829 22.5 7.62845 22.5 8.33166V19.5879C22.5 21.4722 20.987 23 19.1 23H5.9C4.01299 23 2.5 21.4722 2.5 19.5879V8.33166C2.5 7.62845 2.83288 6.98829 3.36965 6.5747L3.39895 6.55212L11.1886 1.42016C11.9614 0.860211 12.9972 0.859947 13.7703 1.41937L21.6001 6.55141ZM10.5 13V21H8.5V12.8C8.5 11.8077 9.30772 11 10.3 11H14.7C15.6923 11 16.5 11.8077 16.5 12.8V21H14.5V13H10.5Z" fill="#050517"/>
</svg>
