<svg width="25" height="24" viewBox="0 0 25 24" fill="none" xmlns="http://www.w3.org/2000/svg">
<path d="M14.75 12.7998C14.75 12.7885 14.7456 12.7769 14.7344 12.7657C14.7231 12.7544 14.7116 12.7501 14.7002 12.75H10.2998C10.2884 12.7501 10.2769 12.7544 10.2656 12.7657C10.2544 12.7769 10.25 12.7885 10.25 12.7998V21.25H14.75V12.7998ZM16.25 21.25H19.0996C20.0119 21.25 20.75 20.5139 20.75 19.5879V8.33207C20.75 8.1952 20.688 8.06365 20.5723 7.96976L12.7891 2.8682L12.751 2.84183C12.6077 2.73467 12.4254 2.72131 12.2725 2.8018L12.209 2.84183C12.1972 2.85065 12.1851 2.85912 12.1729 2.86723L4.42871 7.96879C4.31234 8.06273 4.25 8.19478 4.25 8.33207V19.5879L4.25879 19.7588C4.34301 20.6029 5.04503 21.25 5.90039 21.25H8.75V12.7998C8.75011 11.9458 9.44575 11.2501 10.2998 11.25H14.7002C15.5543 11.2501 16.2499 11.9458 16.25 12.7998V21.25ZM22.25 19.5879C22.25 21.3353 20.8474 22.75 19.0996 22.75H5.90039C4.20733 22.75 2.83792 21.4225 2.75391 19.751L2.75 19.5879V8.33207C2.75 7.70918 3.04489 7.14048 3.52246 6.7725L3.56738 6.74027L11.3477 1.61527C12.0278 1.12993 12.9309 1.12949 13.6113 1.6143L21.4307 6.7393L21.4775 6.7725C21.9551 7.14048 22.25 7.70918 22.25 8.33207V19.5879Z" fill="#050517"/>
</svg>
