<svg width="25" height="24" viewBox="0 0 25 24" fill="none" xmlns="http://www.w3.org/2000/svg">
<path d="M21.4167 12C21.4167 6.89137 17.2754 2.75 12.1667 2.75C7.05811 2.75 2.91675 6.89137 2.91675 12C2.91675 17.1086 7.05811 21.25 12.1667 21.25C17.2754 21.25 21.4167 17.1086 21.4167 12ZM11.4167 6C11.4167 5.58579 11.7525 5.25 12.1667 5.25C12.581 5.25 12.9167 5.58579 12.9167 6V11.4141L16.3484 12.2725L16.4216 12.2949C16.7794 12.4238 16.9884 12.8049 16.8943 13.1816C16.8001 13.5583 16.4365 13.7966 16.0603 13.7422L15.9851 13.7275L12.1365 12.7656C11.7136 12.6599 11.4167 12.2797 11.4167 11.8438V6ZM22.9167 12C22.9167 17.9371 18.1038 22.75 12.1667 22.75C6.22969 22.75 1.41675 17.9371 1.41675 12C1.41675 6.06294 6.22969 1.25 12.1667 1.25C18.1038 1.25 22.9167 6.06294 22.9167 12Z" fill="#050517"/>
</svg>
