<svg width="24" height="24" viewBox="0 0 24 24" fill="none" xmlns="http://www.w3.org/2000/svg">
<path d="M9.25 15.5996C9.24979 15.1305 8.86952 14.7502 8.40039 14.75H5.59961C5.13048 14.7502 4.75021 15.1305 4.75 15.5996V18.4004C4.75021 18.8695 5.13048 19.2498 5.59961 19.25H8.40039C8.86952 19.2498 9.24979 18.8695 9.25 18.4004V15.5996ZM19.25 15.5996C19.2498 15.1305 18.8695 14.7502 18.4004 14.75H15.5996C15.1305 14.7502 14.7502 15.1305 14.75 15.5996V18.4004C14.7502 18.8695 15.1305 19.2498 15.5996 19.25H18.4004C18.8695 19.2498 19.2498 18.8695 19.25 18.4004V15.5996ZM9.25 5.59961C9.24979 5.13048 8.86952 4.75021 8.40039 4.75H5.59961C5.13048 4.75021 4.75021 5.13048 4.75 5.59961V8.40039C4.75021 8.86952 5.13048 9.24979 5.59961 9.25H8.40039C8.86952 9.24979 9.24979 8.86952 9.25 8.40039V5.59961ZM19.25 5.59961C19.2498 5.13048 18.8695 4.75021 18.4004 4.75H15.5996C15.1305 4.75021 14.7502 5.13048 14.75 5.59961V8.40039C14.7502 8.86952 15.1305 9.24979 15.5996 9.25H18.4004C18.8695 9.24979 19.2498 8.86952 19.25 8.40039V5.59961ZM10.75 18.4004C10.7498 19.698 9.69795 20.7498 8.40039 20.75H5.59961C4.30205 20.7498 3.25021 19.698 3.25 18.4004V15.5996C3.25021 14.3021 4.30205 13.2502 5.59961 13.25H8.40039C9.69795 13.2502 10.7498 14.3021 10.75 15.5996V18.4004ZM20.75 18.4004C20.7498 19.698 19.698 20.7498 18.4004 20.75H15.5996C14.3021 20.7498 13.2502 19.698 13.25 18.4004V15.5996C13.2502 14.3021 14.3021 13.2502 15.5996 13.25H18.4004C19.698 13.2502 20.7498 14.3021 20.75 15.5996V18.4004ZM10.75 8.40039C10.7498 9.69795 9.69795 10.7498 8.40039 10.75H5.59961C4.30205 10.7498 3.25021 9.69795 3.25 8.40039V5.59961C3.25021 4.30205 4.30205 3.25021 5.59961 3.25H8.40039C9.69795 3.25021 10.7498 4.30205 10.75 5.59961V8.40039ZM20.75 8.40039C20.7498 9.69795 19.698 10.7498 18.4004 10.75H15.5996C14.3021 10.7498 13.2502 9.69795 13.25 8.40039V5.59961C13.2502 4.30205 14.3021 3.25021 15.5996 3.25H18.4004C19.698 3.25021 20.7498 4.30205 20.75 5.59961V8.40039Z" fill="#050517"/>
</svg>
