<svg width="20" height="20" viewBox="0 0 20 20" fill="none" xmlns="http://www.w3.org/2000/svg">
<path d="M13.2675 3.50783C14.1676 2.77384 15.4957 2.82674 16.3347 3.66571L16.4918 3.83986C17.1767 4.67989 17.1767 5.89209 16.4918 6.73212L16.3347 6.90627L7.49518 15.745C7.42976 15.8104 7.35122 15.8604 7.26487 15.8915L7.17617 15.9159L4.2302 16.5051C4.02529 16.546 3.81319 16.4819 3.66542 16.3342C3.51781 16.1865 3.45363 15.975 3.49453 15.7702L4.08372 12.8234L4.10813 12.7347C4.13916 12.6484 4.18925 12.5698 4.25462 12.5044L13.0933 3.66571L13.2675 3.50783ZM5.27187 13.2539L4.90322 15.0956L6.74485 14.7269L13.8298 7.64276L12.3568 6.16978L5.27187 13.2539ZM15.4501 4.5495C15.0688 4.16836 14.4659 4.14445 14.0569 4.47788L13.9771 4.5495L13.2406 5.28599L14.7136 6.75897L15.4501 6.02248L15.5217 5.94354C15.8334 5.56161 15.8334 5.01037 15.5217 4.62844L15.4501 4.5495Z" fill="#373745"/>
</svg>
