<svg width="25" height="24" viewBox="0 0 25 24" fill="none" xmlns="http://www.w3.org/2000/svg">
<path d="M20.75 5.40039C20.75 4.48912 20.0109 3.75 19.0996 3.75H15.1436C14.8168 4.90386 13.7585 5.75 12.5 5.75C11.2415 5.75 10.1832 4.90386 9.85645 3.75H5.90039C4.98912 3.75 4.25 4.48912 4.25 5.40039V20.5996C4.25 21.5109 4.98912 22.25 5.90039 22.25H19.0996C20.0109 22.25 20.75 21.5109 20.75 20.5996V5.40039ZM13.5 15.25C13.9142 15.25 14.25 15.5858 14.25 16C14.25 16.4142 13.9142 16.75 13.5 16.75H7.5C7.08579 16.75 6.75 16.4142 6.75 16C6.75 15.5858 7.08579 15.25 7.5 15.25H13.5ZM17.5 12.25C17.9142 12.25 18.25 12.5858 18.25 13C18.25 13.4142 17.9142 13.75 17.5 13.75H7.5C7.08579 13.75 6.75 13.4142 6.75 13C6.75 12.5858 7.08579 12.25 7.5 12.25H17.5ZM17.5 9.25C17.9142 9.25 18.25 9.58579 18.25 10C18.25 10.4142 17.9142 10.75 17.5 10.75H7.5C7.08579 10.75 6.75 10.4142 6.75 10C6.75 9.58579 7.08579 9.25 7.5 9.25H17.5ZM12.5 1.75C11.8096 1.75 11.25 2.30964 11.25 3C11.25 3.69036 11.8096 4.25 12.5 4.25C13.1904 4.25 13.75 3.69036 13.75 3C13.75 2.30964 13.1904 1.75 12.5 1.75ZM22.25 20.5996C22.25 22.3393 20.8393 23.75 19.0996 23.75H5.90039C4.16069 23.75 2.75 22.3393 2.75 20.5996V5.40039C2.75 3.66069 4.16069 2.25 5.90039 2.25H9.85645C10.1832 1.09614 11.2415 0.25 12.5 0.25C13.7585 0.25 14.8168 1.09614 15.1436 2.25H19.0996C20.8393 2.25 22.25 3.66069 22.25 5.40039V20.5996Z" fill="#050517"/>
</svg>
