<svg width="25" height="24" viewBox="0 0 25 24" fill="none" xmlns="http://www.w3.org/2000/svg">
<path fill-rule="evenodd" clip-rule="evenodd" d="M12.5 0C10.8431 0 9.5 1.34315 9.5 3H5.9C4.57452 3 3.5 4.07452 3.5 5.4V20.6C3.5 21.9255 4.57452 23 5.9 23H19.1C20.4255 23 21.5 21.9255 21.5 20.6V5.4C21.5 4.07452 20.4255 3 19.1 3H15.5C15.5 1.34315 14.1569 0 12.5 0ZM11.5 3C11.5 2.44772 11.9477 2 12.5 2C13.0523 2 13.5 2.44772 13.5 3C13.5 3.55228 13.0523 4 12.5 4C11.9477 4 11.5 3.55228 11.5 3ZM6.5 10C6.5 9.44771 6.94772 9 7.5 9H17.5C18.0523 9 18.5 9.44771 18.5 10C18.5 10.5523 18.0523 11 17.5 11H7.5C6.94772 11 6.5 10.5523 6.5 10ZM6.5 13C6.5 12.4477 6.94772 12 7.5 12H17.5C18.0523 12 18.5 12.4477 18.5 13C18.5 13.5523 18.0523 14 17.5 14H7.5C6.94772 14 6.5 13.5523 6.5 13ZM6.5 16C6.5 15.4477 6.94772 15 7.5 15H13.5C14.0523 15 14.5 15.4477 14.5 16C14.5 16.5523 14.0523 17 13.5 17H7.5C6.94772 17 6.5 16.5523 6.5 16Z" fill="#050517"/>
</svg>
