<svg width="20" height="20" viewBox="0 0 20 20" fill="none" xmlns="http://www.w3.org/2000/svg">
<path d="M12.5 14.375C12.8452 14.375 13.125 14.6548 13.125 15C13.125 15.3452 12.8452 15.625 12.5 15.625H2.5C2.15482 15.625 1.875 15.3452 1.875 15C1.875 14.6548 2.15482 14.375 2.5 14.375H12.5ZM17.5 11.0417C17.8452 11.0417 18.125 11.3215 18.125 11.6667C18.125 12.0118 17.8452 12.2917 17.5 12.2917H2.5C2.15482 12.2917 1.875 12.0118 1.875 11.6667C1.875 11.3215 2.15482 11.0417 2.5 11.0417H17.5ZM12.5 7.70833C12.8452 7.70833 13.125 7.98816 13.125 8.33333C13.125 8.67851 12.8452 8.95833 12.5 8.95833H2.5C2.15482 8.95833 1.875 8.67851 1.875 8.33333C1.875 7.98816 2.15482 7.70833 2.5 7.70833H12.5ZM17.5 4.375C17.8452 4.375 18.125 4.65482 18.125 5C18.125 5.34518 17.8452 5.625 17.5 5.625H2.5C2.15482 5.625 1.875 5.34518 1.875 5C1.875 4.65482 2.15482 4.375 2.5 4.375H17.5Z" fill="#050517"/>
</svg>
