<svg width="40" height="40" viewBox="0 0 40 40" fill="none" xmlns="http://www.w3.org/2000/svg">
<path d="M25 28.75C25.6904 28.75 26.25 29.3096 26.25 30C26.25 30.6904 25.6904 31.25 25 31.25H5C4.30964 31.25 3.75 30.6904 3.75 30C3.75 29.3096 4.30964 28.75 5 28.75H25ZM35 22.0833C35.6904 22.0833 36.25 22.643 36.25 23.3333C36.25 24.0237 35.6904 24.5833 35 24.5833H5C4.30964 24.5833 3.75 24.0237 3.75 23.3333C3.75 22.643 4.30964 22.0833 5 22.0833H35ZM25 15.4167C25.6904 15.4167 26.25 15.9763 26.25 16.6667C26.25 17.357 25.6904 17.9167 25 17.9167H5C4.30964 17.9167 3.75 17.357 3.75 16.6667C3.75 15.9763 4.30964 15.4167 5 15.4167H25ZM35 8.75C35.6904 8.75 36.25 9.30964 36.25 10C36.25 10.6904 35.6904 11.25 35 11.25H5C4.30964 11.25 3.75 10.6904 3.75 10C3.75 9.30964 4.30964 8.75 5 8.75H35Z" fill="#050517"/>
</svg>
