<svg width="20" height="20" viewBox="0 0 20 20" fill="none" xmlns="http://www.w3.org/2000/svg">
<path d="M9.37484 18.3333V14.8608C9.37494 14.5158 9.65479 14.2359 9.99984 14.2358C10.3449 14.2358 10.6247 14.5157 10.6248 14.8608V18.3333C10.6248 18.6785 10.345 18.9583 9.99984 18.9583C9.65473 18.9582 9.37485 18.6784 9.37484 18.3333ZM5.98128 13.1347C6.22536 12.8906 6.62099 12.8906 6.86507 13.1347C7.10912 13.3788 7.10914 13.7744 6.86507 14.0185L4.43506 16.4485L4.38704 16.4917C4.14156 16.6919 3.77927 16.6773 3.55046 16.4485C3.30676 16.2044 3.30653 15.8087 3.55046 15.5647L5.98128 13.1347ZM13.1346 13.1347C13.3634 12.9059 13.7257 12.8913 13.9712 13.0916L14.0184 13.1347L16.4492 15.5647L16.4923 15.6128C16.6923 15.8582 16.6778 16.2198 16.4492 16.4485C16.2203 16.6774 15.8581 16.692 15.6126 16.4917L15.5654 16.4485L13.1346 14.0185L13.0915 13.9705C12.8917 13.7251 12.9061 13.3634 13.1346 13.1347ZM5.139 9.37496L5.20247 9.37821C5.51769 9.41011 5.76392 9.67635 5.764 9.99996C5.764 10.3236 5.51772 10.5898 5.20247 10.6217L5.139 10.625H1.6665C1.32133 10.625 1.0415 10.3451 1.0415 9.99996C1.04159 9.65485 1.32138 9.37496 1.6665 9.37496H5.139ZM18.3332 9.37496L18.3975 9.37821C18.7126 9.41022 18.9581 9.67643 18.9582 9.99996C18.9582 10.3235 18.7126 10.5897 18.3975 10.6217L18.3332 10.625H14.8615C14.5163 10.625 14.2365 10.3451 14.2365 9.99996C14.2366 9.65485 14.5164 9.37496 14.8615 9.37496H18.3332ZM3.55046 3.55139C3.77924 3.3226 4.14156 3.30814 4.38704 3.50826L4.43506 3.55139L6.86507 5.9814L6.9082 6.02942C7.10832 6.2749 7.09386 6.63722 6.86507 6.86601C6.63613 7.09467 6.27387 7.10876 6.02848 6.90833L5.98128 6.86601L3.55046 4.43518L3.50814 4.38798C3.3077 4.14259 3.3218 3.78034 3.55046 3.55139ZM15.5654 3.55139C15.8095 3.30731 16.2051 3.30731 16.4492 3.55139C16.6932 3.79548 16.6933 4.19114 16.4492 4.43518L14.0184 6.86601L13.9712 6.90833C13.7257 7.10863 13.3635 7.09477 13.1346 6.86601C12.8905 6.62193 12.8905 6.22548 13.1346 5.9814L15.5654 3.55139ZM9.37484 5.13912V1.66663C9.37484 1.32149 9.65472 1.0417 9.99984 1.04163C10.345 1.04163 10.6248 1.32145 10.6248 1.66663V5.13912C10.6247 5.4842 10.3449 5.76412 9.99984 5.76412C9.65479 5.76405 9.37495 5.48415 9.37484 5.13912Z" fill="#F3F3F3"/>
</svg>
