<svg width="64" height="48" viewBox="0 0 64 48" fill="none" xmlns="http://www.w3.org/2000/svg">
<rect width="64" height="48" rx="24" fill="#F9FCC9"/>
<path d="M25.3335 30.875C25.6787 30.875 25.9585 31.1548 25.9585 31.5C25.9585 31.8452 25.6787 32.125 25.3335 32.125H18.6668C18.3217 32.125 18.0418 31.8452 18.0418 31.5C18.0418 31.1548 18.3217 30.875 18.6668 30.875H25.3335ZM26.3752 24.8333C26.3752 22.4202 24.4133 20.4583 22.0002 20.4583C19.587 20.4583 17.6252 22.4202 17.6252 24.8333C17.6252 26.291 18.3316 27.5834 19.4261 28.375H24.5612C25.6603 27.5808 26.3752 26.2909 26.3752 24.8333ZM14.5002 24.2083C14.8453 24.2083 15.1252 24.4881 15.1252 24.8333C15.1252 25.1785 14.8453 25.4583 14.5002 25.4583H12.8335C12.4883 25.4583 12.2085 25.1785 12.2085 24.8333C12.2085 24.4881 12.4883 24.2083 12.8335 24.2083H14.5002ZM31.1668 24.2083C31.512 24.2083 31.7918 24.4881 31.7918 24.8333C31.7918 25.1785 31.512 25.4583 31.1668 25.4583H29.5002C29.155 25.4583 28.8752 25.1785 28.8752 24.8333C28.8752 24.4881 29.155 24.2083 29.5002 24.2083H31.1668ZM15.0763 17.9095C15.3051 17.6807 15.6674 17.6662 15.9129 17.8664L15.9601 17.9095L17.1385 19.0879L17.1816 19.1359C17.3817 19.3814 17.3673 19.7429 17.1385 19.9717C16.9097 20.2004 16.5482 20.2149 16.3027 20.0148L16.2547 19.9717L15.0763 18.7933L15.0332 18.7461C14.8331 18.5006 14.8475 18.1383 15.0763 17.9095ZM28.0402 17.9095C28.2843 17.6655 28.68 17.6655 28.924 17.9095C29.168 18.1535 29.1679 18.5492 28.924 18.7933L27.7456 19.9717C27.5015 20.2157 27.1059 20.2157 26.8618 19.9717C26.6177 19.7276 26.6177 19.332 26.8618 19.0879L28.0402 17.9095ZM21.3752 17.3333V15.6667C21.3752 15.3215 21.655 15.0417 22.0002 15.0417C22.3453 15.0417 22.6252 15.3215 22.6252 15.6667V17.3333C22.6252 17.6785 22.3453 17.9583 22.0002 17.9583C21.655 17.9583 21.3752 17.6785 21.3752 17.3333ZM27.6252 24.8333C27.6252 26.1766 27.1521 27.4087 26.3662 28.375H28.6668C29.012 28.375 29.2918 28.6548 29.2918 29C29.2918 29.3452 29.012 29.625 28.6668 29.625H15.3335C14.9883 29.625 14.7085 29.3452 14.7085 29C14.7085 28.6548 14.9883 28.375 15.3335 28.375H17.6252C16.8421 27.4069 16.3752 26.1729 16.3752 24.8333C16.3752 21.7298 18.8967 19.2083 22.0002 19.2083C25.1037 19.2083 27.6252 21.7298 27.6252 24.8333Z" fill="#050517"/>
<path d="M48.9386 21.8483C49.1841 21.648 49.5463 21.6626 49.7752 21.8914C50.004 22.1203 50.0186 22.4825 49.8183 22.728L49.7752 22.7752L46.4418 26.1085C46.213 26.3374 45.8507 26.3519 45.6052 26.1517L45.558 26.1085L42.2247 22.7752L42.1816 22.728C41.9813 22.4825 41.9959 22.1203 42.2247 21.8914C42.4535 21.6626 42.8158 21.648 43.0613 21.8483L43.1085 21.8914L45.9999 24.7829L48.8914 21.8914L48.9386 21.8483Z" fill="#050517"/>
</svg>
