<svg width="20" height="20" viewBox="0 0 20 20" fill="none" xmlns="http://www.w3.org/2000/svg">
<path d="M6.85628 1.05145C7.06562 1.01433 7.28265 1.08625 7.42838 1.24677C7.5946 1.43009 7.63712 1.69444 7.53662 1.92059C6.26747 4.77617 6.74675 8.25638 9.11621 10.6258C11.4815 12.9911 14.9749 13.4866 18.0306 12.3609L18.116 12.3364C18.3178 12.2934 18.5307 12.3529 18.6816 12.4992C18.8539 12.6664 18.9154 12.9176 18.8395 13.1454C18.4515 14.3094 17.6854 15.2475 16.8083 16.1247C13.1622 19.7707 7.46696 19.9743 3.78824 16.2956C0.125733 12.6331 0.125749 6.76722 3.78824 3.10468C4.66542 2.2275 5.6035 1.46145 6.76757 1.07343L6.85628 1.05145ZM5.87076 2.94192C5.4722 3.22971 5.0798 3.58153 4.67285 3.98847C1.49845 7.16286 1.49845 12.2374 4.67285 15.4118C7.83107 18.5696 12.7337 18.4309 15.9245 15.2401C16.3629 14.8016 16.7351 14.3784 17.0345 13.9478C13.9531 14.6148 10.6201 13.8973 8.23242 11.5096C5.88837 9.16558 5.14247 5.8952 5.87076 2.94192Z" fill="#050517"/>
</svg>
