<svg width="25" height="24" viewBox="0 0 25 24" fill="none" xmlns="http://www.w3.org/2000/svg">
<path d="M22.0834 6C22.0834 4.75171 21.0817 3.75 19.8334 3.75H5.83337C4.58509 3.75 3.58337 4.75171 3.58337 6V13C3.58338 14.2483 4.58509 15.25 5.83337 15.25H8.34607C8.87163 15.2501 9.37445 15.4898 9.70544 15.9062H9.70642L12.6312 19.5557V19.5566C12.731 19.6813 12.9231 19.6813 13.0228 19.5566V19.5557L15.9476 15.9062C16.2786 15.4895 16.7823 15.2501 17.308 15.25H19.8334C21.0817 15.25 22.0834 14.2483 22.0834 13V6ZM16.8334 10.25C17.2476 10.25 17.5834 10.5858 17.5834 11C17.5834 11.4142 17.2476 11.75 16.8334 11.75H8.83337C8.41916 11.75 8.08337 11.4142 8.08337 11C8.08337 10.5858 8.41916 10.25 8.83337 10.25H16.8334ZM16.8334 7.25C17.2476 7.25 17.5834 7.58579 17.5834 8C17.5834 8.41421 17.2476 8.75 16.8334 8.75H8.83337C8.41916 8.75 8.08337 8.41421 8.08337 8C8.08337 7.58579 8.41916 7.25 8.83337 7.25H16.8334ZM23.5834 13C23.5834 15.0767 21.9101 16.75 19.8334 16.75H17.308C17.2357 16.7501 17.1664 16.7843 17.1224 16.8398L17.1185 16.8438L14.1937 20.4941L14.1927 20.4932C13.4924 21.3681 12.1605 21.3683 11.4603 20.4932L8.53552 16.8438L8.53259 16.8398C8.48862 16.7841 8.41849 16.7501 8.34607 16.75H5.83337C3.75666 16.75 2.08338 15.0767 2.08337 13V6C2.08337 3.92329 3.75666 2.25 5.83337 2.25H19.8334C21.9101 2.25 23.5834 3.92329 23.5834 6V13Z" fill="#050517"/>
</svg>
