<svg width="24" height="24" viewBox="0 0 24 24" fill="none" xmlns="http://www.w3.org/2000/svg">
<path d="M17.2498 10C17.2498 6.69064 15.0315 3.89847 11.9998 3.03032C8.96817 3.89847 6.74982 6.69064 6.74982 10V12.7637C6.74982 12.8511 6.73455 12.9378 6.7049 13.0196L6.67072 13.0997L4.77619 16.8877C4.73744 16.9652 4.74138 17.0582 4.78693 17.1319L4.82697 17.1807C4.87292 17.2247 4.93465 17.25 4.99982 17.25H18.9998C19.0864 17.25 19.1671 17.2054 19.2127 17.1319L19.2391 17.0733C19.2577 17.0127 19.2525 16.9459 19.2235 16.8877L17.3289 13.0997C17.2769 12.9955 17.2498 12.8802 17.2498 12.7637V10ZM8.83771 18.75C9.17639 20.1833 10.4631 21.25 11.9998 21.25C13.5365 21.25 14.8232 20.1833 15.1619 18.75H8.83771ZM18.7498 12.587L20.5653 16.2178C20.8023 16.6923 20.8098 17.2446 20.5945 17.7208L20.4881 17.92C20.1692 18.4358 19.6063 18.75 18.9998 18.75H16.6903C16.3306 21.0169 14.3679 22.75 11.9998 22.75C9.63173 22.75 7.66905 21.0169 7.30939 18.75H4.99982C4.46898 18.75 3.97114 18.5095 3.64142 18.1036L3.51154 17.92C3.19277 17.4042 3.1634 16.7602 3.43439 16.2178L5.24982 12.587V10C5.24982 5.92187 8.03952 2.49674 11.8133 1.52544L11.9061 1.50786C11.9995 1.49609 12.0946 1.50189 12.1863 1.52544C15.9601 2.49674 18.7498 5.92187 18.7498 10V12.587Z" fill="#050517"/>
</svg>
