<svg width="25" height="24" viewBox="0 0 25 24" fill="none" xmlns="http://www.w3.org/2000/svg">
<path d="M21.875 12C21.875 6.89137 17.7336 2.75 12.625 2.75C7.51637 2.75 3.375 6.89137 3.375 12C3.375 17.1086 7.51637 21.25 12.625 21.25C17.7336 21.25 21.875 17.1086 21.875 12ZM23.375 12C23.375 17.9371 18.5621 22.75 12.625 22.75C6.68794 22.75 1.875 17.9371 1.875 12C1.875 6.06294 6.68794 1.25 12.625 1.25C18.5621 1.25 23.375 6.06294 23.375 12ZM17.375 13C17.375 13.4142 17.0392 13.75 16.625 13.75C16.2108 13.75 15.875 13.4142 15.875 13V9.81055L9.15527 16.5303C8.86238 16.8232 8.38761 16.8232 8.09473 16.5303C7.80186 16.2374 7.80186 15.7626 8.09473 15.4697L14.8145 8.75H11.625C11.2108 8.74996 10.875 8.41419 10.875 8C10.875 7.58581 11.2108 7.25004 11.625 7.25H16.625C17.0392 7.25 17.375 7.58579 17.375 8V13Z" fill="#050517"/>
</svg>
