<svg width="20" height="20" viewBox="0 0 20 20" fill="none" xmlns="http://www.w3.org/2000/svg">
<path d="M17.7082 10.0003C17.7082 5.74313 14.257 2.29199 9.99984 2.29199C5.74264 2.29199 2.2915 5.74313 2.2915 10.0003C2.2915 14.2575 5.74264 17.7087 9.99984 17.7087C14.257 17.7087 17.7082 14.2575 17.7082 10.0003ZM18.9582 10.0003C18.9582 14.9479 14.9474 18.9587 9.99984 18.9587C5.05229 18.9587 1.0415 14.9479 1.0415 10.0003C1.0415 5.05277 5.05229 1.04199 9.99984 1.04199C14.9474 1.04199 18.9582 5.05277 18.9582 10.0003ZM13.9582 10.8337C13.9582 11.1788 13.6783 11.4587 13.3332 11.4587C12.988 11.4586 12.7082 11.1788 12.7082 10.8337V8.17578L7.1084 13.7756C6.86432 14.0196 6.46868 14.0196 6.22461 13.7756C5.98055 13.5315 5.98055 13.1358 6.22461 12.8918L11.8244 7.29199H9.1665C8.82135 7.29196 8.5415 7.01215 8.5415 6.66699C8.5415 6.32183 8.82135 6.04202 9.1665 6.04199H13.3332C13.6783 6.04199 13.9582 6.32182 13.9582 6.66699V10.8337Z" fill="#DD6565"/>
</svg>
