<svg width="25" height="24" viewBox="0 0 25 24" fill="none" xmlns="http://www.w3.org/2000/svg">
<path d="M2.375 18.5996V5.40039C2.375 3.66069 3.78569 2.25 5.52539 2.25H11.125C11.5392 2.25 11.875 2.58579 11.875 3C11.875 3.41421 11.5392 3.75 11.125 3.75H5.52539C4.61412 3.75 3.875 4.48912 3.875 5.40039V18.5996C3.875 19.5109 4.61412 20.25 5.52539 20.25H11.125C11.5392 20.25 11.875 20.5858 11.875 21C11.875 21.4142 11.5392 21.75 11.125 21.75H5.52539C3.78569 21.75 2.375 20.3393 2.375 18.5996ZM16.5947 7.46973C16.8693 7.19512 17.3041 7.17766 17.5986 7.41797L17.6553 7.46973L21.6553 11.4697C21.9482 11.7626 21.9482 12.2374 21.6553 12.5303L17.6553 16.5303C17.3624 16.8232 16.8876 16.8232 16.5947 16.5303C16.3018 16.2374 16.3018 15.7626 16.5947 15.4697L19.3145 12.75H7.125C6.71079 12.75 6.375 12.4142 6.375 12C6.375 11.5858 6.71079 11.25 7.125 11.25H19.3145L16.5947 8.53027L16.543 8.47363C16.3027 8.17905 16.3201 7.74433 16.5947 7.46973Z" fill="#050517"/>
</svg>
