<svg width="18" height="18" viewBox="0 0 18 18" fill="none" xmlns="http://www.w3.org/2000/svg">
<path d="M9.01853 1.5C8.67739 1.5 8.41511 1.66442 8.25818 1.79893C8.09273 1.94074 7.96214 2.11751 7.8742 2.29339C7.85978 2.32223 7.84724 2.35196 7.83665 2.38241L6.49659 6.23508H2.01062C1.66947 6.23508 1.40719 6.3995 1.25026 6.53401C1.08481 6.67582 0.95423 6.85259 0.866288 7.02847C0.70986 7.34133 0.731163 7.67288 0.81374 7.92064C0.888064 8.14365 1.04283 8.3912 1.30117 8.55252L4.76144 11.3376L3.66648 15.549C3.55565 15.8337 3.58028 16.1255 3.65479 16.3491C3.73736 16.5968 3.91924 16.8749 4.23213 17.0314C4.63268 17.2316 5.07062 17.2316 5.47117 17.0314C5.5062 17.0138 5.53981 16.9936 5.57169 16.9708L9.10794 14.4449L12.5188 16.9407C12.8219 17.2071 13.1543 17.2057 13.268 17.2053L13.2801 17.2052L13.2922 17.2053C13.4015 17.2057 13.713 17.207 14.0063 16.9702C14.2546 16.8088 14.4042 16.5672 14.477 16.3491C14.5531 16.1205 14.5772 15.8206 14.4576 15.5299L13.1984 11.4164L16.7825 8.51503C16.8657 8.44767 16.9335 8.36327 16.9814 8.26751L16.9976 8.23534C17.0797 8.07351 17.25 7.73787 17.25 7.36388C17.25 7.24745 17.2228 7.13261 17.1708 7.02847C17.0828 6.85259 16.9522 6.67582 16.7868 6.53401C16.6299 6.3995 16.3676 6.23508 16.0264 6.23508H11.6244L10.1955 2.36881C10.186 2.34309 10.1751 2.31791 10.1629 2.29339C10.0749 2.11751 9.94433 1.94074 9.77889 1.79893C9.62195 1.66442 9.35967 1.5 9.01853 1.5Z" fill="#6665DD"/>
</svg>
