<svg width="17" height="16" viewBox="0 0 17 16" fill="none" xmlns="http://www.w3.org/2000/svg">
<path d="M8.60742 1.50521C8.81295 1.52969 8.97636 1.63367 9.08398 1.72591C9.18048 1.80866 9.26272 1.9072 9.32682 2.00977L9.38476 2.11328L9.40625 2.16341L10.7161 5.70898H14.7461C14.9943 5.70909 15.1902 5.82887 15.3131 5.93425C15.4419 6.04457 15.5448 6.18397 15.6139 6.32227L15.6367 6.37565C15.6564 6.43001 15.6667 6.48747 15.6667 6.54557C15.6667 6.77752 15.5817 6.99315 15.5098 7.14518L15.4453 7.27409C15.4134 7.33789 15.3686 7.39456 15.3131 7.43945L12.0391 10.0885L13.1992 13.877C13.2831 14.0883 13.2676 14.308 13.2103 14.4798C13.1536 14.6497 13.0365 14.833 12.8463 14.9518C12.6236 15.1329 12.3885 15.127 12.3047 15.127C12.2196 15.127 11.9781 15.1327 11.7519 14.9421L8.597 12.6341L5.35546 14.9499L5.28906 14.9902C4.98001 15.1448 4.64564 15.1447 4.33658 14.9902C4.10695 14.8754 3.96984 14.6687 3.9069 14.4798C3.85023 14.3098 3.8338 14.0927 3.91471 13.8835L4.92057 10.015L1.74804 7.46094C1.55654 7.34214 1.43838 7.15827 1.38151 6.98763C1.31863 6.79884 1.30456 6.55176 1.41927 6.32227L1.47721 6.21875C1.54134 6.11616 1.6235 6.017 1.72005 5.93425C1.84308 5.82886 2.03888 5.70903 2.28711 5.70898H6.39323L7.62304 2.17253L7.64843 2.11328C7.71757 1.97501 7.82054 1.83622 7.94921 1.72591C8.07221 1.62049 8.26791 1.50008 8.51627 1.5L8.60742 1.50521ZM7.2207 6.37305C7.15078 6.57406 6.96152 6.70898 6.74869 6.70898H2.40755L5.79948 9.43945C5.95259 9.56276 6.01949 9.76415 5.97005 9.95443L4.9069 14.041L8.30989 11.6107L8.37825 11.5697C8.54351 11.4875 8.74338 11.5024 8.89583 11.6139L12.2005 14.0319L10.9844 10.0592C10.9247 9.86427 10.99 9.65238 11.1484 9.52409L14.5937 6.73438C14.598 6.72543 14.6023 6.7171 14.6061 6.70898H10.3685C10.1592 6.70898 9.97229 6.57848 9.89974 6.38216L8.51757 2.64388L7.2207 6.37305Z" fill="#050517"/>
</svg>
