<svg width="40" height="40" viewBox="0 0 40 40" fill="none" xmlns="http://www.w3.org/2000/svg">
<path d="M26.6667 33.75C27.357 33.75 27.9167 34.3096 27.9167 35C27.9167 35.6903 27.357 36.25 26.6667 36.25H13.3333C12.643 36.25 12.0833 35.6903 12.0833 35C12.0833 34.3096 12.643 33.75 13.3333 33.75H26.6667ZM28.75 21.6666C28.75 16.8403 24.8263 12.9166 20 12.9166C15.1737 12.9166 11.25 16.8403 11.25 21.6666C11.25 24.582 12.6629 27.1668 14.8519 28.75H25.1221C27.3204 27.1615 28.75 24.5817 28.75 21.6666ZM5.00001 20.4166C5.69036 20.4166 6.25001 20.9763 6.25001 21.6666C6.25001 22.357 5.69036 22.9166 5.00001 22.9166H1.66667C0.976316 22.9166 0.416672 22.357 0.416672 21.6666C0.416672 20.9763 0.976316 20.4166 1.66667 20.4166H5.00001ZM38.3333 20.4166C39.0237 20.4166 39.5833 20.9763 39.5833 21.6666C39.5833 22.357 39.0237 22.9166 38.3333 22.9166H35C34.3097 22.9166 33.75 22.357 33.75 21.6666C33.75 20.9763 34.3097 20.4166 35 20.4166H38.3333ZM6.15235 7.81899C6.60995 7.36141 7.33457 7.33242 7.82553 7.73273L7.91993 7.81899L10.2767 10.1758L10.363 10.2718C10.7631 10.7627 10.7342 11.4858 10.2767 11.9433C9.81917 12.4009 9.09611 12.4297 8.60515 12.0296L8.50912 11.9433L6.15235 9.58657L6.06609 9.49217C5.66578 9.0012 5.69475 8.27659 6.15235 7.81899ZM32.0801 7.81899C32.5683 7.33108 33.3596 7.33092 33.8477 7.81899C34.3357 8.30706 34.3356 9.09839 33.8477 9.58657L31.4909 11.9433C31.0027 12.4315 30.2115 12.4315 29.7233 11.9433C29.2352 11.4552 29.2352 10.6639 29.7233 10.1758L32.0801 7.81899ZM18.75 6.66665V3.33331C18.75 2.64296 19.3097 2.08331 20 2.08331C20.6904 2.08331 21.25 2.64296 21.25 3.33331V6.66665C21.25 7.357 20.6904 7.91665 20 7.91665C19.3097 7.91665 18.75 7.357 18.75 6.66665ZM31.25 21.6666C31.25 24.3531 30.3038 26.8175 28.7321 28.75H33.3333C34.0237 28.75 34.5833 29.3096 34.5833 30C34.5833 30.6903 34.0237 31.25 33.3333 31.25H6.66667C5.97632 31.25 5.41667 30.6903 5.41667 30C5.41667 29.3096 5.97632 28.75 6.66667 28.75H11.25C9.68397 26.8139 8.75001 24.3458 8.75001 21.6666C8.75001 15.4596 13.793 10.4166 20 10.4166C26.207 10.4166 31.25 15.4596 31.25 21.6666Z" fill="#050517"/>
</svg>
