<svg width="12" height="12" viewBox="0 0 12 12" fill="none" xmlns="http://www.w3.org/2000/svg">
<path d="M9.62497 6.50006C9.62497 4.49803 8.002 2.87506 5.99997 2.87506C3.99794 2.87506 2.37497 4.49803 2.37497 6.50006C2.37497 8.50209 3.99794 10.1251 5.99997 10.1251C8.002 10.1251 9.62497 8.50209 9.62497 6.50006ZM7.99997 6.12506C8.20708 6.12506 8.37497 6.29295 8.37497 6.50006C8.37497 6.70717 8.20708 6.87506 7.99997 6.87506H3.99997C3.79286 6.87506 3.62497 6.70717 3.62497 6.50006C3.62497 6.29295 3.79286 6.12506 3.99997 6.12506H7.99997ZM2.73483 1.23492C2.88128 1.08848 3.11866 1.08848 3.26511 1.23492C3.41155 1.38137 3.41155 1.61875 3.26511 1.7652L1.76511 3.2652C1.61866 3.41164 1.38128 3.41164 1.23483 3.2652C1.08839 3.11875 1.08839 2.88137 1.23483 2.73492L2.73483 1.23492ZM8.73483 1.23492C8.87214 1.09762 9.0895 1.08889 9.23679 1.20904L9.26511 1.23492L10.7651 2.73492L10.791 2.76324C10.9111 2.91053 10.9024 3.12789 10.7651 3.2652C10.6278 3.4025 10.4104 3.41123 10.2632 3.29107L10.2348 3.2652L8.73483 1.7652L8.70896 1.73687C8.5888 1.58958 8.59753 1.37222 8.73483 1.23492ZM10.375 6.50006C10.375 8.9163 8.41622 10.8751 5.99997 10.8751C3.58373 10.8751 1.62497 8.9163 1.62497 6.50006C1.62497 4.08381 3.58373 2.12506 5.99997 2.12506C8.41622 2.12506 10.375 4.08381 10.375 6.50006Z" fill="#FDFEF2"/>
</svg>
