<svg width="40" height="40" viewBox="0 0 40 40" fill="none" xmlns="http://www.w3.org/2000/svg">
<path d="M33.75 9.00065C33.75 7.48187 32.5181 6.25 30.9993 6.25H9.00065C7.48187 6.25 6.25 7.48187 6.25 9.00065V30.9993C6.25 32.5181 7.48187 33.75 9.00065 33.75H30.9993C32.5181 33.75 33.75 32.5181 33.75 30.9993V9.00065ZM13.75 25C13.75 24.7699 13.5635 24.5833 13.3333 24.5833C13.1032 24.5833 12.9167 24.7699 12.9167 25C12.9167 25.2301 13.1032 25.4167 13.3333 25.4167C13.5635 25.4167 13.75 25.2301 13.75 25ZM28.3333 23.75C29.0237 23.75 29.5833 24.3096 29.5833 25C29.5833 25.6904 29.0237 26.25 28.3333 26.25H20C19.3096 26.25 18.75 25.6904 18.75 25C18.75 24.3096 19.3096 23.75 20 23.75H28.3333ZM13.75 15C13.75 14.7699 13.5635 14.5833 13.3333 14.5833C13.1032 14.5833 12.9167 14.7699 12.9167 15C12.9167 15.2301 13.1032 15.4167 13.3333 15.4167C13.5635 15.4167 13.75 15.2301 13.75 15ZM28.3333 13.75C29.0237 13.75 29.5833 14.3096 29.5833 15C29.5833 15.6904 29.0237 16.25 28.3333 16.25H20C19.3096 16.25 18.75 15.6904 18.75 15C18.75 14.3096 19.3096 13.75 20 13.75H28.3333ZM16.25 25C16.25 26.6108 14.9442 27.9167 13.3333 27.9167C11.7225 27.9167 10.4167 26.6108 10.4167 25C10.4167 23.3892 11.7225 22.0833 13.3333 22.0833C14.9442 22.0833 16.25 23.3892 16.25 25ZM16.25 15C16.25 16.6108 14.9442 17.9167 13.3333 17.9167C11.7225 17.9167 10.4167 16.6108 10.4167 15C10.4167 13.3892 11.7225 12.0833 13.3333 12.0833C14.9442 12.0833 16.25 13.3892 16.25 15ZM36.25 30.9993C36.25 33.8988 33.8988 36.25 30.9993 36.25H9.00065C6.10116 36.25 3.75 33.8988 3.75 30.9993V9.00065C3.75 6.10116 6.10116 3.75 9.00065 3.75H30.9993C33.8988 3.75 36.25 6.10116 36.25 9.00065V30.9993Z" fill="#050517"/>
</svg>
