<svg width="20" height="20" viewBox="0 0 20 20" fill="none" xmlns="http://www.w3.org/2000/svg">
<path d="M5.20829 2.5001C5.20829 2.15492 5.48811 1.8751 5.83329 1.8751C6.17846 1.8751 6.45829 2.15492 6.45829 2.5001V15.9913L8.72473 13.7249C8.9688 13.4808 9.36444 13.4808 9.60851 13.7249C9.85259 13.9689 9.85259 14.3646 9.60851 14.6087L6.27518 17.942C6.0311 18.1861 5.63547 18.1861 5.39139 17.942L2.05806 14.6087C1.81398 14.3646 1.81398 13.9689 2.05806 13.7249C2.28689 13.496 2.64916 13.4815 2.89465 13.6817L2.94185 13.7249L5.20829 15.9913V2.5001ZM13.5416 17.5001V4.00889L11.2752 6.27533C11.0311 6.5194 10.6355 6.5194 10.3914 6.27533C10.1473 6.03125 10.1473 5.63561 10.3914 5.39154L13.7247 2.0582L13.7719 2.01507C14.0174 1.81481 14.3797 1.82937 14.6085 2.0582L17.9418 5.39154L17.985 5.43874C18.1852 5.68422 18.1707 6.04649 17.9418 6.27533C17.713 6.50416 17.3507 6.51871 17.1053 6.31846L17.0581 6.27533L14.7916 4.00889V17.5001C14.7916 17.8453 14.5118 18.1251 14.1666 18.1251C13.8214 18.1251 13.5416 17.8453 13.5416 17.5001Z" fill="#050517"/>
</svg>
