<svg width="40" height="40" viewBox="0 0 40 40" fill="none" xmlns="http://www.w3.org/2000/svg">
<path d="M10.4167 11.6666C10.4167 6.37392 14.7073 2.08331 20 2.08331C25.2927 2.08331 29.5833 6.37392 29.5833 11.6666C29.5833 16.9594 25.2927 21.25 20 21.25C14.7073 21.25 10.4167 16.9594 10.4167 11.6666Z" fill="#050517"/>
<path d="M19.6625 23.7689C19.734 23.7563 19.8065 23.75 19.8791 23.75H20.1193C20.1919 23.75 20.2659 23.7563 20.3374 23.7689L32.4949 25.9071C32.5164 25.9109 32.5378 25.9152 32.5591 25.9201C34.7976 26.4359 37.2041 27.8585 37.6727 30.6192C37.6754 30.6353 37.6778 30.6515 37.6799 30.6677L37.8695 32.1303L37.8698 32.1331C38.3106 35.4814 35.6549 37.9166 32.5202 37.9166C32.4499 37.9166 32.3807 37.9108 32.313 37.8994H7.47974C4.34436 37.8994 1.68814 35.4631 2.13034 32.1137L2.32023 30.6658C2.32243 30.6491 2.32496 30.6323 2.32784 30.6157C2.79617 27.9034 5.22075 26.4019 7.45634 25.9167C7.47249 25.9131 7.48871 25.91 7.50498 25.9071L19.6625 23.7689Z" fill="#050517"/>
</svg>
