<svg width="25" height="24" viewBox="0 0 25 24" fill="none" xmlns="http://www.w3.org/2000/svg">
<path d="M19.4167 10.5996C19.4165 10.1305 19.0363 9.75021 18.5671 9.75H5.76636C5.29722 9.75021 4.91696 10.1305 4.91675 10.5996V13.4004C4.91696 13.8695 5.29723 14.2498 5.76636 14.25H18.5671C19.0363 14.2498 19.4165 13.8695 19.4167 13.4004V10.5996ZM20.9167 13.4004C20.9165 14.698 19.8647 15.7498 18.5671 15.75H12.9167V22C12.9167 22.4142 12.581 22.75 12.1667 22.75C11.7525 22.75 11.4167 22.4142 11.4167 22V15.75H5.76636C4.4688 15.7498 3.41696 14.6979 3.41675 13.4004V10.5996C3.41696 9.30205 4.4688 8.25021 5.76636 8.25H11.4167V2C11.4167 1.58579 11.7525 1.25 12.1667 1.25C12.581 1.25 12.9167 1.58579 12.9167 2V8.25H18.5671C19.8647 8.25021 20.9165 9.30205 20.9167 10.5996V13.4004Z" fill="#050517"/>
</svg>
