<svg width="25" height="24" viewBox="0 0 25 24" fill="none" xmlns="http://www.w3.org/2000/svg">
<path d="M20.75 9.40039C20.75 8.55115 20.0958 7.84378 19.2676 7.75879L19.0996 7.75H4.7002C4.45441 7.75 4.25 7.95441 4.25 8.2002V18.5996C4.25 19.5054 4.9946 20.25 5.90039 20.25H19.0996C20.0054 20.25 20.75 19.5054 20.75 18.5996V17.75H15.2139C13.9028 17.7498 12.7502 16.7458 12.75 15.4004V12.5996C12.7502 11.2542 13.9028 10.2502 15.2139 10.25H20.75V9.40039ZM16.5098 13.25C16.924 13.25 17.2598 13.5858 17.2598 14C17.2598 14.4142 16.924 14.75 16.5098 14.75H16.5C16.0858 14.75 15.75 14.4142 15.75 14C15.75 13.5858 16.0858 13.25 16.5 13.25H16.5098ZM14.25 15.4004C14.2502 15.8217 14.6321 16.2498 15.2139 16.25H20.75V11.75H15.2139C14.6321 11.7502 14.2502 12.1783 14.25 12.5996V15.4004ZM18.75 5.37988C18.7499 4.51644 18.0125 3.75837 17.0068 3.75L5.0625 4.74707C5.04177 4.7488 5.02081 4.75 5 4.75C4.58421 4.75 4.25 5.08421 4.25 5.5C4.25 5.91579 4.58421 6.25 5 6.25H18.75V5.37988ZM20.25 6.46875C21.4187 6.93005 22.25 8.07167 22.25 9.40039V18.5996C22.25 20.3338 20.8338 21.75 19.0996 21.75H5.90039C4.16618 21.75 2.75 20.3338 2.75 18.5996V5.5C2.75 4.27671 3.7223 3.28597 4.9375 3.25293L16.9277 2.25293L16.9902 2.25C18.7558 2.25012 20.2499 3.60832 20.25 5.37988V6.46875Z" fill="#050517"/>
</svg>
