<svg width="25" height="24" viewBox="0 0 25 24" fill="none" xmlns="http://www.w3.org/2000/svg">
<path d="M16.495 13C15.9455 13 15.5 13.4477 15.5 14C15.5 14.5523 15.9455 15 16.495 15H16.505C17.0545 15 17.5 14.5523 17.5 14C17.5 13.4477 17.0545 13 16.505 13H16.495Z" fill="#050517"/>
<path fill-rule="evenodd" clip-rule="evenodd" d="M16.9484 2H16.99C18.8809 2 20.5 3.45774 20.5 5.38V6.30262C21.6776 6.83802 22.5 8.02626 22.5 9.4V18.6C22.5 20.4723 20.9723 22 19.1 22H5.9C4.02772 22 2.5 20.4723 2.5 18.6V5.5C2.5 4.13333 3.5926 3.02529 4.95325 3.00043L16.9484 2ZM18.5 5.38V6H5C4.72229 6 4.5 5.77772 4.5 5.5C4.5 5.22229 4.72229 5 5 5H5.04163L17.027 4.00038C17.8962 4.01847 18.5 4.67227 18.5 5.38ZM21.5 11H15.2143C14.2675 11 13.5 11.7163 13.5 12.6V15.4C13.5 16.2837 14.2675 17 15.2143 17H21.5V11Z" fill="#050517"/>
</svg>
