<svg width="32" height="32" viewBox="0 0 32 32" fill="none" xmlns="http://www.w3.org/2000/svg">
<g clip-path="url(#clip0_208_2069)">
<path d="M5.26027 0H1.13891C0.509906 0 0 0.509906 0 1.13891V5.26027C0 5.88927 0.509906 6.39918 1.13891 6.39918H5.26027C5.88927 6.39918 6.39918 5.88927 6.39918 5.26027V1.13891C6.39918 0.509906 5.88927 0 5.26027 0Z" fill="#050517"/>
<path d="M30.8611 0H26.7397C26.1107 0 25.6008 0.509906 25.6008 1.13891V5.26027C25.6008 5.88927 26.1107 6.39918 26.7397 6.39918H30.8611C31.4901 6.39918 32 5.88927 32 5.26027V1.13891C32 0.509906 31.4901 0 30.8611 0Z" fill="#050517"/>
<path d="M5.26027 25.6008H1.13891C0.509906 25.6008 0 26.1107 0 26.7397V30.8611C0 31.4901 0.509906 32 1.13891 32H5.26027C5.88927 32 6.39918 31.4901 6.39918 30.8611V26.7397C6.39918 26.1107 5.88927 25.6008 5.26027 25.6008Z" fill="#050517"/>
<path d="M30.8611 25.6008H26.7397C26.1107 25.6008 25.6008 26.1107 25.6008 26.7397V30.8611C25.6008 31.4901 26.1107 32 26.7397 32H30.8611C31.4901 32 32 31.4901 32 30.8611V26.7397C32 26.1107 31.4901 25.6008 30.8611 25.6008Z" fill="#050517"/>
<path d="M19.2016 5.26027V1.13891C19.2016 0.508001 18.6895 0 18.0627 0H13.9414C13.3105 0 12.8025 0.512098 12.8025 1.13891V5.26027C12.8025 5.89118 12.2904 6.39918 11.6635 6.39918H7.54218C6.91128 6.39918 6.40328 6.91128 6.40328 7.53809V11.6595C6.40328 12.2904 5.89118 12.7984 5.26437 12.7984H1.13891C0.508001 12.7984 0 13.3105 0 13.9373V18.0586C0 18.6895 0.512098 19.1975 1.13891 19.1975H5.26027C5.89118 19.1975 6.39918 19.7096 6.39918 20.3364V24.4578C6.39918 25.0887 6.91128 25.5967 7.53809 25.5967H11.6595C12.2904 25.5967 12.7984 26.1088 12.7984 26.7356V30.857C12.7984 31.4879 13.3105 31.9959 13.9373 31.9959H18.0586C18.6895 31.9959 19.1975 31.4838 19.1975 30.857V26.7356C19.1975 26.1047 19.7096 25.5967 20.3364 25.5967H24.4578C25.0887 25.5967 25.5967 25.0846 25.5967 24.4578V20.3364C25.5967 19.7055 26.1088 19.1975 26.7356 19.1975H30.857C31.4879 19.1975 31.9959 18.6854 31.9959 18.0586V13.9373C31.9959 13.3064 31.4838 12.7984 30.857 12.7984H26.7356C26.1047 12.7984 25.5967 12.2863 25.5967 11.6595V7.53809C25.5967 6.90718 25.0846 6.39918 24.4578 6.39918H20.3364C19.7055 6.39918 19.1975 5.88708 19.1975 5.26027H19.2016Z" fill="#050517"/>
</g>
<defs>
<clipPath id="clip0_208_2069">
<rect width="32" height="32" fill="white"/>
</clipPath>
</defs>
</svg>
