<svg width="20" height="20" viewBox="0 0 20 20" fill="none" xmlns="http://www.w3.org/2000/svg">
<path d="M17.3333 9.95833H2.25V15.6663L2.25732 15.8071C2.32769 16.5005 2.91336 17.0417 3.62533 17.0417H15.958C16.7174 17.0417 17.3333 16.4257 17.3333 15.6663V9.95833ZM17.3333 6.33366C17.3333 5.57427 16.7174 4.95833 15.958 4.95833H3.62533C2.86593 4.95833 2.25 5.57427 2.25 6.33366V8.70833H17.3333V6.33366ZM18.5833 15.6663C18.5833 17.1161 17.4078 18.2917 15.958 18.2917H3.62533C2.22077 18.2917 1.0734 17.1886 1.00326 15.8014L1 15.6663V6.33366C1 4.88391 2.17558 3.70833 3.62533 3.70833H15.958C17.4078 3.70833 18.5833 4.88391 18.5833 6.33366V15.6663Z" fill="#050517"/>
<path d="M12.2917 12C12.2917 11.4477 12.7394 11 13.2917 11H15.2917C15.844 11 16.2917 11.4477 16.2917 12V14C16.2917 14.5523 15.844 15 15.2917 15H13.2917C12.7394 15 12.2917 14.5523 12.2917 14V12Z" fill="#050517"/>
<path d="M4.79167 6.5V2.25C4.79167 1.83579 5.12745 1.5 5.54167 1.5C5.95588 1.5 6.29167 1.83579 6.29167 2.25V6.5C6.29167 6.91421 5.95588 7.25 5.54167 7.25C5.12745 7.25 4.79167 6.91421 4.79167 6.5Z" fill="#050517"/>
<path d="M13.0417 6.5V2.25C13.0417 1.83579 13.3775 1.5 13.7917 1.5C14.2059 1.5 14.5417 1.83579 14.5417 2.25V6.5C14.5417 6.91421 14.2059 7.25 13.7917 7.25C13.3775 7.25 13.0417 6.91421 13.0417 6.5Z" fill="#050517"/>
</svg>
