<svg width="24" height="24" viewBox="0 0 24 24" fill="none" xmlns="http://www.w3.org/2000/svg">
<path d="M3.25 20.1V4.20001C3.25 3.7858 3.58579 3.45001 4 3.45001C4.41421 3.45001 4.75 3.7858 4.75 4.20001V20.1C4.75 20.5142 4.41421 20.85 4 20.85C3.58579 20.85 3.25 20.5142 3.25 20.1ZM18.2461 10.5127C18.2053 10.1129 17.8871 9.79467 17.4873 9.75391L17.4004 9.75H9.59961C9.13048 9.75021 8.75021 10.1305 8.75 10.5996V13.4004L8.75391 13.4873C8.79758 13.9156 9.1598 14.2498 9.59961 14.25H17.4004L17.4873 14.2461C17.8871 14.2053 18.2053 13.8871 18.2461 13.4873L18.25 13.4004V10.5996L18.2461 10.5127ZM19.75 13.4004L19.7383 13.6406C19.6258 14.7464 18.7464 15.6258 17.6406 15.7383L17.4004 15.75H9.59961C8.38314 15.7498 7.38219 14.8254 7.26172 13.6406L7.25 13.4004V10.5996C7.25021 9.30205 8.30205 8.25021 9.59961 8.25H17.4004L17.6406 8.26172C18.8254 8.38219 19.7498 9.38314 19.75 10.5996V13.4004Z" fill="#050517"/>
</svg>
