<svg width="17" height="16" viewBox="0 0 17 16" fill="none" xmlns="http://www.w3.org/2000/svg">
<g clip-path="url(#clip0_213_493)">
<path d="M13.3335 6.5332C13.3334 6.5149 13.3186 6.50007 13.3003 6.5H2.3667C2.34839 6.50007 2.33357 6.5149 2.3335 6.5332V12.1335C2.33357 12.1518 2.34839 12.1666 2.3667 12.1667H13.3003C13.3186 12.1666 13.3334 12.1518 13.3335 12.1335V6.5332ZM8.00016 9.33333C8.00016 9.24129 7.92554 9.16667 7.8335 9.16667C7.74145 9.16667 7.66683 9.24129 7.66683 9.33333C7.66683 9.42538 7.74145 9.5 7.8335 9.5C7.92554 9.5 8.00016 9.42538 8.00016 9.33333ZM9.00016 9.33333C9.00016 9.97767 8.47783 10.5 7.8335 10.5C7.18916 10.5 6.66683 9.97767 6.66683 9.33333C6.66683 8.689 7.18916 8.16667 7.8335 8.16667C8.47783 8.16667 9.00016 8.689 9.00016 9.33333ZM14.3335 10.1667H15.3003C15.3079 10.1666 15.3156 10.1638 15.3231 10.1562C15.3306 10.1487 15.3335 10.141 15.3335 10.1335V4.5332C15.3335 4.52563 15.3306 4.51793 15.3231 4.51042C15.3156 4.5029 15.3079 4.50003 15.3003 4.5H4.3667C4.35913 4.50003 4.35143 4.5029 4.34391 4.51042C4.3364 4.51793 4.33353 4.52563 4.3335 4.5332V5.5H13.3003C13.8709 5.50007 14.3334 5.96261 14.3335 6.5332V10.1667ZM16.3335 10.1335C16.3334 10.7028 15.8697 11.1666 15.3003 11.1667H14.3335V12.1335C14.3334 12.7041 13.8709 13.1666 13.3003 13.1667H2.3667C1.79611 13.1666 1.33357 12.7041 1.3335 12.1335V6.5332C1.33357 5.96261 1.79611 5.50007 2.3667 5.5H3.3335V4.5332C3.33357 3.96383 3.79733 3.50007 4.3667 3.5H15.3003C15.8697 3.50007 16.3334 3.96383 16.3335 4.5332V10.1335Z" fill="#050517"/>
</g>
<defs>
<clipPath id="clip0_213_493">
<rect width="16" height="16" fill="white" transform="translate(0.5)"/>
</clipPath>
</defs>
</svg>
