<svg width="20" height="20" viewBox="0 0 20 20" fill="none" xmlns="http://www.w3.org/2000/svg">
<path d="M16.875 4.50032C16.875 3.74093 16.2591 3.12499 15.4997 3.12499H12.203C11.9307 4.08654 11.0487 4.79166 10 4.79166C8.95125 4.79166 8.0693 4.08654 7.79704 3.12499H4.50033C3.74093 3.12499 3.125 3.74093 3.125 4.50032V17.1663C3.125 17.9257 3.74093 18.5417 4.50033 18.5417H15.4997C16.2591 18.5417 16.875 17.9257 16.875 17.1663V4.50032ZM10.8333 12.7083C11.1785 12.7083 11.4583 12.9882 11.4583 13.3333C11.4583 13.6785 11.1785 13.9583 10.8333 13.9583H5.83333C5.48816 13.9583 5.20833 13.6785 5.20833 13.3333C5.20833 12.9882 5.48816 12.7083 5.83333 12.7083H10.8333ZM14.1667 10.2083C14.5118 10.2083 14.7917 10.4882 14.7917 10.8333C14.7917 11.1785 14.5118 11.4583 14.1667 11.4583H5.83333C5.48816 11.4583 5.20833 11.1785 5.20833 10.8333C5.20833 10.4882 5.48816 10.2083 5.83333 10.2083H14.1667ZM14.1667 7.70833C14.5118 7.70833 14.7917 7.98815 14.7917 8.33333C14.7917 8.67851 14.5118 8.95833 14.1667 8.95833H5.83333C5.48816 8.95833 5.20833 8.67851 5.20833 8.33333C5.20833 7.98815 5.48816 7.70833 5.83333 7.70833H14.1667ZM10 1.45833C9.4247 1.45833 8.95833 1.9247 8.95833 2.49999C8.95833 3.07529 9.4247 3.54166 10 3.54166C10.5753 3.54166 11.0417 3.07529 11.0417 2.49999C11.0417 1.9247 10.5753 1.45833 10 1.45833ZM18.125 17.1663C18.125 18.6161 16.9494 19.7917 15.4997 19.7917H4.50033C3.05058 19.7917 1.875 18.6161 1.875 17.1663V4.50032C1.875 3.05057 3.05058 1.87499 4.50033 1.87499H7.79704C8.0693 0.913445 8.95125 0.208328 10 0.208328C11.0487 0.208328 11.9307 0.913445 12.203 1.87499H15.4997C16.9494 1.87499 18.125 3.05057 18.125 4.50032V17.1663Z" fill="#FDFEF2"/>
</svg>
