<svg width="25" height="24" viewBox="0 0 25 24" fill="none" xmlns="http://www.w3.org/2000/svg">
<path d="M12.5725 14.25L12.7024 14.2617L19.9973 15.5439L20.0354 15.5518L20.2883 15.6162C21.4703 15.9474 22.6684 16.7079 23.0373 18.0703L23.1038 18.3711L23.1086 18.4004L23.2219 19.2783L23.2414 19.4648C23.3877 21.3779 21.8346 22.75 20.012 22.75C19.9712 22.75 19.9312 22.7457 19.8918 22.7393H4.98852C3.10717 22.7393 1.51298 21.2774 1.77856 19.2676L1.89281 18.3994L1.89672 18.3691L1.96313 18.0732C2.35923 16.6321 3.71626 15.8228 4.97387 15.5498L5.00317 15.5439L12.2981 14.2617L12.428 14.25H12.5725ZM5.28149 17.0176C4.24954 17.2446 3.51459 17.8494 3.37719 18.6152L3.26586 19.4639V19.4648C3.13797 20.4345 3.86518 21.2393 4.98852 21.2393H20.0227C20.05 21.2393 20.077 21.2422 20.1038 21.2451C21.175 21.2026 21.8593 20.4179 21.7346 19.4746V19.4727L21.6223 18.6084C21.4834 17.8331 20.7788 17.2657 19.7102 17.0166L12.509 15.75H12.4914L5.28149 17.0176ZM16.7502 7C16.7502 4.65279 14.8474 2.75 12.5002 2.75C10.153 2.75 8.25024 4.65279 8.25024 7C8.25024 9.34721 10.153 11.25 12.5002 11.25C14.8474 11.25 16.7502 9.34721 16.7502 7ZM18.2502 7C18.2502 10.1756 15.6759 12.75 12.5002 12.75C9.3246 12.75 6.75024 10.1756 6.75024 7C6.75024 3.82436 9.3246 1.25 12.5002 1.25C15.6759 1.25 18.2502 3.82436 18.2502 7Z" fill="#050517"/>
</svg>
